<svg xmlns="http://www.w3.org/2000/svg" width="159.5" height="103.483" viewBox="0 0 159.5 103.483">
  <g id="Сгруппировать_1303" data-name="Сгруппировать 1303" transform="translate(3828.76 -7029.296)">
    <path id="Контур_8227" data-name="Контур 8227" d="M-3763.669,7092.182c-1.739-.041-3.041-.088-7.3-.116a5.705,5.705,0,0,1-2.663-.39,4.3,4.3,0,0,1-2.154-2h-6.483a8.7,8.7,0,0,1-3.287-.387,4.321,4.321,0,0,1-2.237-2.006h-5.387a12.526,12.526,0,0,1-4.456-.487,5.769,5.769,0,0,1-3.124-2.728h-5.657c-.239,0-.337.005-.436.007a7.343,7.343,0,0,1-1.647-.092h-.006a12.9,12.9,0,0,1-3.268-1.037,5.784,5.784,0,0,1-2.284-2.034h-5.473v0c-.239,0-.336,0-.438,0a7.33,7.33,0,0,1-1.646-.089h0a9.348,9.348,0,0,1-4.674-2.411,8.234,8.234,0,0,1-.686-.776,7.8,7.8,0,0,1-.59-.878L-3828,7076h.953c23.31,0,40.536.28,63.02.1-.159.307-.309.626-.449.948h-61.548a7.2,7.2,0,0,0,.595.669,8.149,8.149,0,0,0,4.079,2.094h0a6.484,6.484,0,0,0,1.361.066c.2,0,.408-.008.462-.008h4.852l-.027-.047h49.288c-.089.36-.162.724-.227,1.087h-47.013a4.8,4.8,0,0,0,1.456,1.13,12.025,12.025,0,0,0,2.962.926h.005a6.445,6.445,0,0,0,1.357.064l.461-.006v0h40.544c-.014.256-.021.514-.021.778,0,.1,0,.191,0,.286h-33.52a4.5,4.5,0,0,0,2.2,1.736,11.511,11.511,0,0,0,4.008.412h.008l27.463-.066c.054.374.118.743.2,1.109h-20.92a3.028,3.028,0,0,0,1.349,1.043,7.657,7.657,0,0,0,2.812.307h17.1c.107.363.228.723.36,1.076h-9.665a3.158,3.158,0,0,0,1.394,1.042,4.8,4.8,0,0,0,2.109.275h.015l6.73.06c.179.37.371.738.576,1.094" fill="#447850" fill-rule="evenodd"/>
    <path id="Контур_8228" data-name="Контур 8228" d="M-3734.371,7092.182c1.74-.041,3.038-.088,7.3-.116a5.7,5.7,0,0,0,2.663-.39,4.292,4.292,0,0,0,2.154-2h6.482a8.7,8.7,0,0,0,3.287-.387,4.321,4.321,0,0,0,2.239-2.006h5.387a12.52,12.52,0,0,0,4.455-.487,5.771,5.771,0,0,0,3.125-2.728h5.656c.237,0,.339.005.436.007a7.339,7.339,0,0,0,1.647-.092h.007a12.882,12.882,0,0,0,3.266-1.037,5.815,5.815,0,0,0,2.29-2.034h5.469v0c.239,0,.337,0,.436,0a7.318,7.318,0,0,0,1.646-.089h0a9.346,9.346,0,0,0,4.671-2.411,7.716,7.716,0,0,0,.686-.776,7.555,7.555,0,0,0,.591-.878l.44-.762h-.954c-23.311,0-40.536.28-63.019.1.16.307.307.626.45.948h61.546a7.454,7.454,0,0,1-.592.669,8.18,8.18,0,0,1-4.081,2.094h0a6.506,6.506,0,0,1-1.362.066c-.207,0-.41-.008-.462-.008h-4.855l.03-.047h-49.287c.084.36.161.724.225,1.087h47.014a4.815,4.815,0,0,1-1.454,1.13,12.076,12.076,0,0,1-2.966.926h0a6.5,6.5,0,0,1-1.362.064l-.459-.006v0h-40.542c.012.256.017.514.017.778,0,.1,0,.191,0,.286h33.52a4.477,4.477,0,0,1-2.2,1.736,11.508,11.508,0,0,1-4.008.412h-.01l-27.462-.066q-.081.561-.194,1.109h20.919a3.037,3.037,0,0,1-1.346,1.043,7.672,7.672,0,0,1-2.813.307h-17.1c-.11.363-.231.723-.361,1.076h9.665a3.157,3.157,0,0,1-1.394,1.042,4.807,4.807,0,0,1-2.109.275h-.015l-6.733.06c-.179.37-.368.738-.573,1.094" fill="#447850" fill-rule="evenodd"/>
    <path id="Контур_8229" data-name="Контур 8229" d="M-3744.408,7097.77l.035-.013c.51-.175,1.012-.371,1.5-.594l.013-.008a14.208,14.208,0,0,0,1.406-.748l.019-.011a14.687,14.687,0,0,0,7.114-12.588,14.708,14.708,0,0,0-7.41-12.771c-.2-.111-.393-.216-.594-.318l-.006-.005h0c-.409-.21-.823-.4-1.253-.569l-.045-.02-.044-.015-.277-.1-.015,0-.265-.1-.076-.023-.017-.008-.1-.03-.094-.028,0,0-.275-.085h-.007l-.094-.029-.191-.055-.1-.025-.094-.025-.19-.05h0l-.1-.024-.1-.024-.171-.036-.023-.007-.1-.02a14.7,14.7,0,0,0-3.062-.322,14.7,14.7,0,0,0-14.7,14.7,14.7,14.7,0,0,0,14.7,14.7c.467,0,.92-.024,1.375-.067a15.074,15.074,0,0,0,3.24-.672m3.158-2.971c-.316-.113-.635-.221-.948-.325a14.157,14.157,0,0,0,1.711-2.624,15.877,15.877,0,0,0,.666-1.518q1.124.213,2.255.479a13.593,13.593,0,0,1-2.015,2.567,13.6,13.6,0,0,1-1.669,1.421m4.19-4.9q-1.222-.294-2.44-.525a16.837,16.837,0,0,0,.691-4.767c0-.114,0-.226,0-.337h3.2a13.509,13.509,0,0,1-1.453,5.629m1.455-6.626h-3.246a18.734,18.734,0,0,0-.855-4.427q1.47-.278,2.94-.636a13.588,13.588,0,0,1,1.161,5.063m-1.615-5.987q-1.413.341-2.823.6c-.089-.223-.175-.444-.269-.661a17.709,17.709,0,0,0-1.984-3.492q.825-.259,1.648-.582a12.955,12.955,0,0,1,1.067.963,13.631,13.631,0,0,1,2.361,3.168m-4.4-4.847q-.672.245-1.343.449a15.8,15.8,0,0,0-2.136-2.113,13.473,13.473,0,0,1,3.479,1.664m-11.21-1.717a15.609,15.609,0,0,0-2.129,2.077q-.669-.215-1.341-.481a13.536,13.536,0,0,1,3.47-1.6m-4.447,2.3q.824.346,1.648.623a17.578,17.578,0,0,0-2.054,3.588c-.1.223-.188.45-.275.68q-1.461-.273-2.914-.634a13.5,13.5,0,0,1,2.35-3.157,13.335,13.335,0,0,1,1.245-1.1m-4.053,5.179q1.519.383,3.034.67a18.652,18.652,0,0,0-.849,4.406h-3.352a13.594,13.594,0,0,1,1.167-5.076m-1.166,6.073h3.309c0,.111,0,.223,0,.337a16.791,16.791,0,0,0,.688,4.746c-.846.164-1.691.347-2.537.559a13.582,13.582,0,0,1-1.458-5.642m1.966,6.554c.784-.194,1.566-.361,2.35-.512a14.2,14.2,0,0,0,.671,1.538,14.17,14.17,0,0,0,1.791,2.72c-.323.111-.641.229-.962.349a13.485,13.485,0,0,1-1.842-1.541,13.718,13.718,0,0,1-2.008-2.554m4.931,4.776c.205-.079.417-.145.624-.213a14.869,14.869,0,0,0,1.168,1.055,13.9,13.9,0,0,1-1.792-.842m11.51.761a13.831,13.831,0,0,0,1.15-1.061c.2.064.411.128.615.2a13.4,13.4,0,0,1-1.765.863m-6.4-26.008a31.905,31.905,0,0,0-1.683,3.138c-.557-.1-1.113-.217-1.667-.366a14.242,14.242,0,0,1,3.35-2.772m-4.059,3.625q.981.275,1.96.455a25.575,25.575,0,0,0-1.33,4.059q-1.476-.15-2.947-.389c.064-.174.135-.347.208-.517a16.657,16.657,0,0,1,2.109-3.608m-2.664,5.083q1.544.255,3.082.413a22.608,22.608,0,0,0-.4,3.8h-3.515a17.884,17.884,0,0,1,.829-4.212m-.873,5.209h3.562a22.766,22.766,0,0,0,.549,4.422q-1.725.173-3.444.462a15.851,15.851,0,0,1-.67-4.547q0-.171,0-.337m1,5.849c1.118-.193,2.237-.338,3.356-.446a26.585,26.585,0,0,0,1.436,4.025,21.7,21.7,0,0,0-2.319.525,13.036,13.036,0,0,1-1.892-2.786,13.762,13.762,0,0,1-.581-1.318m3.275,4.929c.651-.169,1.3-.3,1.955-.408.422.871.9,1.737,1.419,2.606-.1-.013-.2-.024-.3-.035a13.362,13.362,0,0,1-3.078-2.163m4.248-24.13c-.005.949-.011,1.9-.016,2.845q-.732-.029-1.46-.112.648-1.365,1.476-2.733m-1.905,3.688c.628.081,1.254.131,1.883.155q-.008,1.984-.014,3.97-1.6-.018-3.206-.142a24.633,24.633,0,0,1,1.337-3.983m-1.552,4.968q1.708.138,3.42.153c0,1.183,0,2.367,0,3.546h-3.815a21.85,21.85,0,0,1,.4-3.7m-.394,4.7h3.811q0,2.1,0,4.181-1.632.022-3.266.142a22.244,22.244,0,0,1-.548-4.323m.8,5.308q1.51-.113,3.02-.126.006,1.984.017,3.967c-.531.021-1.063.061-1.591.12a26,26,0,0,1-1.446-3.961m1.9,4.918c.38-.036.76-.064,1.141-.078,0,.729.007,1.454.012,2.183-.418-.7-.8-1.405-1.153-2.1m2.26-23.621a31.427,31.427,0,0,1,1.514,2.808c-.508.048-1.021.08-1.532.088,0-.966.01-1.929.018-2.9m-.026,3.9c.659-.014,1.314-.056,1.973-.13a25.426,25.426,0,0,1,1.318,3.934c-1.1.088-2.2.14-3.3.153q0-1.977.008-3.957m-.013,4.956q1.758-.023,3.52-.168a21.852,21.852,0,0,1,.4,3.714h-3.919c0-1.179,0-2.363,0-3.546m0,4.543h3.914a21.884,21.884,0,0,1-.553,4.34q-1.678-.133-3.358-.156c0-1.4,0-2.787,0-4.184m.007,5.182c1.035.014,2.071.062,3.108.138a26.124,26.124,0,0,1-1.427,3.918c-.556-.053-1.112-.087-1.668-.1q-.01-1.978-.013-3.959m.017,4.958q.6.01,1.206.062c-.36.721-.76,1.447-1.19,2.172-.006-.743-.01-1.491-.016-2.234m.964-24.057a14.339,14.339,0,0,1,3.41,2.842c-.569.138-1.14.251-1.708.341a31.5,31.5,0,0,0-1.7-3.183m2.119,4.13c.667-.111,1.331-.254,2-.429a16.742,16.742,0,0,1,2.048,3.532c.07.165.138.33.2.5-.978.16-1.961.29-2.943.392a25.377,25.377,0,0,0-1.3-3.99m1.517,4.973q1.533-.163,3.077-.418a17.721,17.721,0,0,1,.836,4.235h-3.511a22.792,22.792,0,0,0-.4-3.817m.4,4.814h3.561v.337a15.841,15.841,0,0,1-.671,4.571q-1.72-.294-3.444-.469a22.914,22.914,0,0,0,.554-4.439m-.795,5.42c1.116.112,2.236.263,3.355.445a13.83,13.83,0,0,1-.579,1.3,12.92,12.92,0,0,1-1.824,2.71,22.1,22.1,0,0,0-2.363-.5,26.887,26.887,0,0,0,1.411-3.962m-1.849,4.906q1,.146,2,.386a13.232,13.232,0,0,1-3.109,2.207c-.11.016-.218.03-.329.043q.794-1.317,1.434-2.636" fill="#447850" fill-rule="evenodd"/>
    <path id="Контур_8230" data-name="Контур 8230" d="M-3731.156,7094.653a20.884,20.884,0,0,1-17.866,10.052,20.882,20.882,0,0,1-17.862-10.052h5.117a16.693,16.693,0,0,0,12.745,5.894,16.693,16.693,0,0,0,12.747-5.894Z" fill="#447850" fill-rule="evenodd"/>
    <path id="Контур_8231" data-name="Контур 8231" d="M-3749.022,7062.912a20.886,20.886,0,0,1,18.35,10.891h-4.926a16.725,16.725,0,0,0-13.424-6.735,16.72,16.72,0,0,0-13.42,6.735h-4.928a20.891,20.891,0,0,1,18.348-10.891" fill="#447850" fill-rule="evenodd"/>
    <path id="Контур_8232" data-name="Контур 8232" d="M-3725.164,7094.653a26.207,26.207,0,0,1-23.857,15.358,26.21,26.21,0,0,1-23.857-15.358h2.81a23.674,23.674,0,0,0,21.047,12.831,23.677,23.677,0,0,0,21.048-12.831Z" fill="#447850" fill-rule="evenodd"/>
    <path id="Контур_8233" data-name="Контур 8233" d="M-3749.022,7057.606a26.207,26.207,0,0,1,24.223,16.2h-2.76a23.683,23.683,0,0,0-21.463-13.669,23.678,23.678,0,0,0-21.459,13.669h-2.763a26.212,26.212,0,0,1,24.222-16.2" fill="#447850" fill-rule="evenodd"/>
    <path id="Контур_8234" data-name="Контур 8234" d="M-3692.346,7051.856a1.99,1.99,0,0,0,1,.566,5.846,5.846,0,0,0,2.686-.361,3.626,3.626,0,0,1,.212-1.372,5.075,5.075,0,0,1,1.1-1.711c.107-.113.22-.229.343-.347-.4.091-.76.175-1.1.262a12.147,12.147,0,0,0-2.03.687,3.611,3.611,0,0,0-1.32.928q-.65.956-.894,1.348m-8.485-7.554c.253-.16.506-.329.761-.51q1.074-.746,3.164-2.315,2-1.506,3.193-2.54a23.612,23.612,0,0,0,1.833-1.749l.028-.031a9.559,9.559,0,0,0-1.192.651,29.278,29.278,0,0,0-3.283,2.453q-2.609,2.2-3.811,3.33c-.24.229-.473.466-.693.711m-26.98,2.131a1.043,1.043,0,0,0,.08.2.562.562,0,0,0,.479.339,2.018,2.018,0,0,0,.666-.172,13.278,13.278,0,0,0,3.389-2.245q1.021-.926,2.315-2.287a31.423,31.423,0,0,0-4.991,2.181,4.045,4.045,0,0,0-1.938,1.982m12.8-.522q-.625.468-1.245.938c.376-.254.738-.527,1.1-.817Zm9.459,1.6.033-.13c-.186.142-.379.277-.564.413.176-.09.35-.184.531-.283m11.341,2.41c.014-.059.031-.121.048-.181a17.312,17.312,0,0,1-2.074.461,7.435,7.435,0,0,0,2.026-.28m11.207,3.116.041-.059a.653.653,0,0,0,.043-.059c-1,.238-2.114.471-2.69.576a1.563,1.563,0,0,0,.4,0,4.626,4.626,0,0,0,.565-.115c.082-.023.827-.177,1.641-.345m-17.144-8.136q-.976.588-2.03,1.2l-.019.031a16.241,16.241,0,0,0,2.049-1.234m-41.474-.337c0-.076-.005-.152-.006-.227a7.449,7.449,0,0,1,.354-2.213,11.929,11.929,0,0,1,1.059-2.354,21.26,21.26,0,0,1,1.71-2.459,35.1,35.1,0,0,1,2.379-2.664,26.333,26.333,0,0,1,2.8-2.5,18.921,18.921,0,0,1,2.509-1.651,11.816,11.816,0,0,1,2.093-.9,5.848,5.848,0,0,1,1.6-.3,2.071,2.071,0,0,1,1.1.275,1.842,1.842,0,0,1,.705.817,2.988,2.988,0,0,1,.254,1.241,3.781,3.781,0,0,1-.071.738,3.282,3.282,0,0,1,.022.352,5.709,5.709,0,0,1-.987,2.947,17.531,17.531,0,0,1-2.472,3.141,21.363,21.363,0,0,1-2.838,2.472,4.269,4.269,0,0,1-1.948.962,1.124,1.124,0,0,1-.746-.283.825.825,0,0,1-.348-.645,1.666,1.666,0,0,1,.167-.692.726.726,0,0,1-.119-.4,2.727,2.727,0,0,1,.782-1.62,14.063,14.063,0,0,1,1.7-1.744,3.659,3.659,0,0,1,1.111-.8c.057,0,.086.02.086.072a.941.941,0,0,1-.134.359,1.214,1.214,0,0,0-.133.321c0,.059.028.09.077.09.146,0,.567-.359,1.266-1.067a17.048,17.048,0,0,0,1.915-2.356,5.884,5.884,0,0,0,.738-1.4.576.576,0,0,0-.089-.134.622.622,0,0,0-.484-.179,5.728,5.728,0,0,0-2.752,1.339,26.9,26.9,0,0,0-3.774,3.4,24,24,0,0,0-3.214,4.255,8.993,8.993,0,0,0-1.219,3.09,3.336,3.336,0,0,0,.317,1.277,2.27,2.27,0,0,0,.94.992,2.946,2.946,0,0,0,1.487.345,9.033,9.033,0,0,0,4.266-1.338c.481-.271,1.043-.637,1.648-1.06l.286-.253a3.274,3.274,0,0,1,.552-.714,14.282,14.282,0,0,1,1.483-1.229,21,21,0,0,1,5.156-2.8,10.584,10.584,0,0,1,3.769-.791.976.976,0,0,1,.634.3,1.924,1.924,0,0,1,.43.641,1.245,1.245,0,0,1,.143.522.433.433,0,0,1-.263.387l-.01.006a1.609,1.609,0,0,1,.081.174,1.324,1.324,0,0,1,.143.52.434.434,0,0,1-.263.389,2.7,2.7,0,0,1-.4.145c.042.112.077.21.109.291a1.029,1.029,0,0,1,.066.415,1.072,1.072,0,0,1-.2.452l.083.221a1.072,1.072,0,0,1,.066.418,3.135,3.135,0,0,1-.909,1.3c-.582.626-1,1.09-1.24,1.386a1.852,1.852,0,0,0-.31.583.989.989,0,0,0,1.006.641,4.278,4.278,0,0,0,1.971-.568,12.608,12.608,0,0,0,2.375-1.559c.125-.1.247-.2.361-.295-.015-.018-.032-.038-.047-.058a.963.963,0,0,1-.151-.744,1.605,1.605,0,0,1,.135-.443,1.068,1.068,0,0,1-.086-.649,2.971,2.971,0,0,1,.682-1.306,8.126,8.126,0,0,1,1.435-1.418,4.154,4.154,0,0,1,1.449-.792,1.142,1.142,0,0,1,.465-.051c.227.021.322.126.3.321a2.031,2.031,0,0,1-.47.763c.041,0,.083,0,.124,0,.173.02.269.084.293.2a37.756,37.756,0,0,1,3.792,0,1.333,1.333,0,0,1,.478.113,1.038,1.038,0,0,1,.384.682,2.931,2.931,0,0,1,.051,1.006.793.793,0,0,1-.073.236,2.724,2.724,0,0,1,.024.854,1.156,1.156,0,0,1-.4.653c-.237.22-.637.537-1.2.956a9.3,9.3,0,0,0-1.728,1.7,6.071,6.071,0,0,0-.594.892,1.158,1.158,0,0,0,.722.274c.648.071,2.323-.656,4.079-1.652a13.208,13.208,0,0,1,2.232-3.3,31.078,31.078,0,0,1,4.992-4.479,36.5,36.5,0,0,1,5.229-3.2c1.631-.794,2.7-1.142,3.187-1.051.47.086.638.426.506,1.007-.028.113-.062.231-.1.351a.965.965,0,0,1,.054.739q-.894,3.876-14.135,11.449a10.6,10.6,0,0,0-.278,1.046c-.022.094-.039.182-.057.269a1,1,0,0,0,.847.913,1.761,1.761,0,0,0,1.044-.168,15.61,15.61,0,0,0,1.588-.92,1.236,1.236,0,0,1,.025-.3,1.832,1.832,0,0,1,.081-.257,2.221,2.221,0,0,1-.031-.832,3.188,3.188,0,0,1,1.141-1.619,9.439,9.439,0,0,1,2.061-1.321,3.141,3.141,0,0,1,1.531-.428c.449.085.608.412.471,1a2.584,2.584,0,0,1-.1.34.963.963,0,0,1,.051.749,4.557,4.557,0,0,1-.753,1.523,14.215,14.215,0,0,1-1.052,1.311,1.387,1.387,0,0,0,.329.095,8.423,8.423,0,0,0,2.507-.391,5.456,5.456,0,0,1,1.136-1.235,10.831,10.831,0,0,1,2.531-1.543,10.861,10.861,0,0,1,2.879-.855,5.579,5.579,0,0,1,2.489.093,2.778,2.778,0,0,1,1.1.568.63.63,0,0,1,.209.713.861.861,0,0,1-.287.348l.027.025a.655.655,0,0,1,.235.631.588.588,0,0,1,.094.174,1.52,1.52,0,0,1-.115.96.483.483,0,0,1,.065.13,1.6,1.6,0,0,1-.138,1.029,6.375,6.375,0,0,1-1.011,1.625,10.345,10.345,0,0,1-.969,1.041,1.693,1.693,0,0,0,.313-.01,4.816,4.816,0,0,0,.565-.116c.144-.041,2.373-.483,3.373-.718.207-.094.445-.2.711-.3a17.391,17.391,0,0,1,3.084-1,2.608,2.608,0,0,1,1.8.151,1.671,1.671,0,0,1,.629.562.509.509,0,0,1-.029.587.745.745,0,0,1-.262.216,1.1,1.1,0,0,1,.238.285.5.5,0,0,1-.029.589.729.729,0,0,1-.273.222,2.091,2.091,0,0,1-.375.141c-.12.037-.377.1-.76.188a29.034,29.034,0,0,0-2.919.841c.507-.125,1.13-.287,1.86-.478q1.338-.348,3-.6a25.65,25.65,0,0,1,3.581-.278,3.037,3.037,0,0,1,1.57.247c.156.088.166.36.048.818-.023.1-.056.188-.084.277.143.1.148.366.033.811a3.784,3.784,0,0,1-.587,1.254,2.2,2.2,0,0,1-1.213.5q-3.76.933-4.742,1.8a2.9,2.9,0,0,0,1.28.2c.623,0,1.633-.066,3.036-.192l-.627.877q-1.213.231-2.2.4.945-.023,2.78-.186l-.624.875c-2.179.417-3.817.678-4.9.788a4.048,4.048,0,0,1-2.311-.223,1.079,1.079,0,0,1-.459-1.571q-.341-.612.334-1.561a3.385,3.385,0,0,1,.711-.718,7.066,7.066,0,0,1,.975-.593q.417-.219,1.129-.554l-.162.031a20.964,20.964,0,0,0-2.27.525c-.66.2-1.374.426-2.154.694a15.434,15.434,0,0,1-1.641.484,1.089,1.089,0,0,1-.77-.079c-.3-.176-.378-.618-.227-1.334l.019-.1a2.094,2.094,0,0,1,.032-.99,4.649,4.649,0,0,1,.335-1.015c-1.048.237-2.068.438-2.326.472a4.3,4.3,0,0,1-1.909-.329q-2.893,1.575-4.466,1.088a2.588,2.588,0,0,1-1.415-1.021,3.57,3.57,0,0,1-.622-1.8,4.654,4.654,0,0,1,.043-1.138,5.114,5.114,0,0,1-.006-.568,10.149,10.149,0,0,1-3.154.483,4.423,4.423,0,0,1-1.11-.377,19.08,19.08,0,0,1-3.1,1.994,3.752,3.752,0,0,1-2.3.385,2,2,0,0,1-1.626-1.521,5.276,5.276,0,0,1-.142-2.237,6.19,6.19,0,0,1,.037-.988c-.91.665-1.778,1.271-2.36,1.654a13.011,13.011,0,0,1-1.821,1.018,2.888,2.888,0,0,1-1.421.293,1.411,1.411,0,0,1-1.09-.7,2.552,2.552,0,0,1-.248-1.718c.008-.058.017-.117.031-.178a3.652,3.652,0,0,1,.019-.909,3.773,3.773,0,0,1,.555-1.432,10.265,10.265,0,0,1,1.308-1.677c.183-.2.375-.392.571-.587l-1.1.065c-.443.02-.786.041-1.023.054a10.486,10.486,0,0,1-2.231,2.154c-.929.688-1.83,1.356-2.738,2.072-2.2,1.732-3.823,2.543-4.811,2.487a1.071,1.071,0,0,1-.9-.441,1.9,1.9,0,0,1-.19-1.156,3.728,3.728,0,0,1,.059-.457,3.139,3.139,0,0,1-.013-.63,6.3,6.3,0,0,1,.431-1.677q-2.078,1.8-3.154,2.627a3.432,3.432,0,0,1-2.033.921,1.479,1.479,0,0,1-.88-.628,5.406,5.406,0,0,1-.865-1.543,4.381,4.381,0,0,1-.3-1.807,17.9,17.9,0,0,1-3.207,2.147c-.227.118-.456.226-.681.326a8.284,8.284,0,0,1-3.357.783,5.4,5.4,0,0,1-2.413-.493,3.394,3.394,0,0,1-1.522-1.466,4.794,4.794,0,0,1-.526-2.282,6.159,6.159,0,0,1,.056-.861m-21.093-1.659a1.487,1.487,0,0,1,.412.258,8.066,8.066,0,0,1,.924,1.226,3.5,3.5,0,0,0,1.5-1.139,2.6,2.6,0,0,0,.443-1.114c0-.079-.015-.154-.027-.235l-.3-2.124q-.754.879-2.96,3.128m-8.179-.29a7.919,7.919,0,0,0,1.884-1.246,6.447,6.447,0,0,0,1.3-1.515c.051-.093.1-.176.138-.258a.574.574,0,0,0-.115-.008,2,2,0,0,0-.839.375,7.041,7.041,0,0,0-1.148.935,6.494,6.494,0,0,0-1.021,1.325,3.913,3.913,0,0,0-.2.392m-30.548,5.651a10.015,10.015,0,0,0,.036,1.046q.213.938,1.517.638a3.5,3.5,0,0,0,1.41-1.079,3.542,3.542,0,0,1-.188-.579,4.954,4.954,0,0,1-.06-1.842,5.518,5.518,0,0,1,.061-1.156c.045-.291.1-.606.187-.941q-.78.762-1.353,1.39a9.809,9.809,0,0,0-1.155,1.487,3.539,3.539,0,0,0-.455,1.036m-8.457,1.438a8.208,8.208,0,0,0,1.779-1.867,6.442,6.442,0,0,0,.9-1.786l.033-.12a.259.259,0,0,0-.34-.122,2.044,2.044,0,0,0-.723.568,7.257,7.257,0,0,0-.889,1.183,6.581,6.581,0,0,0-.669,1.532,3.96,3.96,0,0,0-.106.45c.005.053.011.108.018.162m26.446-3.955a.852.852,0,0,0,.21.37.6.6,0,0,0,.517.179,2.082,2.082,0,0,0,1.112-.584,21.678,21.678,0,0,0,1.76-1.837,31.348,31.348,0,0,0,2.316-3.159c.074-.11.141-.216.2-.322l0,0c-.541-.319-1.945.684-2.442,1.018a13.873,13.873,0,0,0-1.436,1.243,9.366,9.366,0,0,0-1.767,2.078,4.423,4.423,0,0,0-.469,1.018m23.159-.991c-.091.061-.182.123-.274.187l.049.007c.078-.061.154-.129.225-.194m-4.507-1.007.011-.011v-.005Zm-47.29,8.824c-1.272,2.69-3.289,5.65-4.606,8.223q-.253,2.009-.508,3.336c-.166.883-.318,1.627-.463,2.229s-.217.911-.221.924a2.2,2.2,0,0,1-.364.765,1.867,1.867,0,0,1-.58.6.971.971,0,0,1-.818.075,1.107,1.107,0,0,1-.639-.537,3.34,3.34,0,0,1-.255-2.154,5.231,5.231,0,0,1,.175-1.7,15.8,15.8,0,0,1,1.835-4.1c.141-1.352.245-2.7.322-4.032l.02-.415,0-.017c.029-.746.048-1.442.055-2.092.015-1.07,0-2.112-.048-3.121-.33.851-.672,1.676-1.011,2.484s-.688,1.584-1.027,2.328-.552,1.215-.629,1.4-.155.328-.211.462q-1.153,3.169-2.249,3.771a2.411,2.411,0,0,1-2.314-.025,4.833,4.833,0,0,1-2.1-2.119,8.081,8.081,0,0,1-.794-2.166,11.2,11.2,0,0,1-.239-2.658c0-.322.021-.646.049-.97l0-.118a15.05,15.05,0,0,1,.341-2.952,17.324,17.324,0,0,1,.9-2.949,24.313,24.313,0,0,1,2.376-4.346,27.986,27.986,0,0,1,2.914-3.661,11.03,11.03,0,0,1,2.277-1.961,1.352,1.352,0,0,1,.9-.192,1.459,1.459,0,0,1,.764.415,3.37,3.37,0,0,1,.589.78,1.751,1.751,0,0,1,.192.96,2.747,2.747,0,0,1-.093.518,2.053,2.053,0,0,1,.044.569,5.169,5.169,0,0,1-.661,1.874,21.442,21.442,0,0,1-1.286,2.107,6.485,6.485,0,0,1-.828,1.065c-.051.028-.085.026-.106-.01-.043-.078-.01-.257.092-.533s.215-.563.355-.869a1.719,1.719,0,0,1-.291.325c-.05.025-.086.025-.107-.01-.044-.08-.011-.257.092-.535s.22-.569.361-.88a4.336,4.336,0,0,0,.21-.583c-.009-.04-.022-.081-.033-.121a18.966,18.966,0,0,0-1.961,2.265,21.867,21.867,0,0,0-1.686,2.682,29.644,29.644,0,0,0-1.422,3.1,17.283,17.283,0,0,0-.992,3.638c-.071.449-.122.875-.157,1.278,0,.246.006.482.022.709a4.817,4.817,0,0,0,.4,1.88,1.235,1.235,0,0,0,.673.582,1.031,1.031,0,0,0,.9-.085,3.118,3.118,0,0,0,1.067-1.205,22.155,22.155,0,0,0,1.16-2.348q.585-1.366,1.061-2.559c.316-.8.65-1.666,1.012-2.6.33-.865.583-1.552.751-2.058a6.462,6.462,0,0,0,.31-1.263,2.224,2.224,0,0,1,.6-1.441,1.121,1.121,0,0,1,1.021-.292,1.154,1.154,0,0,1,.816.59,6.324,6.324,0,0,1,.106,1.5q.018,1.347-.037,3.954c-.024,1.287-.077,2.767-.158,4.428l0,.034v.11q-.036.778-.078,1.618a60.514,60.514,0,0,0,4.156-6.344,5.4,5.4,0,0,1,.127-.949,10.555,10.555,0,0,1,1.47-3.191,8.873,8.873,0,0,1,1.69-2.007,4.9,4.9,0,0,1,1.727-1.028,1.715,1.715,0,0,1,1.13-.016,1.116,1.116,0,0,1,.658.784,2.788,2.788,0,0,1,.029,1.43,3.257,3.257,0,0,1-.206,1.606,7.93,7.93,0,0,1-1.472,2.339,20.68,20.68,0,0,1-2.472,2.381,1.686,1.686,0,0,0,.611.7,1.4,1.4,0,0,0,1.2.14,3.72,3.72,0,0,0,1.32-.749,8.253,8.253,0,0,0,1.194-1.3q.522-.691,1.219-1.776c.028-.043.273-.428.413-.653a5.352,5.352,0,0,1,.218-1.377,9.253,9.253,0,0,1,1.095-2.424,8.761,8.761,0,0,1,1.7-2.017,4.395,4.395,0,0,1,1.891-1.055,2.307,2.307,0,0,1,1.1-.039.652.652,0,0,1,.516.489,1.094,1.094,0,0,1-.177.731,1.2,1.2,0,0,1,.826.207,1.74,1.74,0,0,1,.418.913,6.29,6.29,0,0,1,.074,1.795c-.009.083-.017.17-.025.252.007.253,0,.531-.024.836a9.18,9.18,0,0,1-.172,1.189l.109.066.212-.049a1.087,1.087,0,0,0,.447-.23c.138-.116.249-.243.359-.352a10.753,10.753,0,0,0,1.219-1.387,1.04,1.04,0,0,1-.266-.159.97.97,0,0,1-.32-.66,2.294,2.294,0,0,1,.083-.912c-.013-.056-.025-.115-.033-.175a2.978,2.978,0,0,1,.225-1.376,7.674,7.674,0,0,1,.836-1.652,3.437,3.437,0,0,1,1.012-1.075.953.953,0,0,1,.371-.158c.2-.031.3.045.334.229a2.172,2.172,0,0,1-.214.865.2.2,0,0,1,.138.131,31.925,31.925,0,0,1,3.459-.982,1.031,1.031,0,0,1,.426,0,1.006,1.006,0,0,1,.5.538,3.028,3.028,0,0,1,.306.925,1.1,1.1,0,0,1-.148.672,2.68,2.68,0,0,1,.1.418,1.135,1.135,0,0,1-.163.7c-.142.261-.392.653-.754,1.174a8.7,8.7,0,0,0-1,1.984c-.08.228-.145.439-.194.626.121.318.421.441.894.363q.854-.131,2.668-2.141a3.442,3.442,0,0,1,.154-.9,6.239,6.239,0,0,1,.7-1.447,10.976,10.976,0,0,1,1.309-1.635,15.852,15.852,0,0,1,1.92-1.7,7.53,7.53,0,0,1,3.351-1.767,2.459,2.459,0,0,1,2.179.922,3.732,3.732,0,0,1,.591,1.808,3.669,3.669,0,0,1-.066.9c.008.062.013.124.016.185a5.24,5.24,0,0,1-.4,2.092c-.2.63-.49,1.508-.881,2.628l3.011-2.714a5.257,5.257,0,0,1,.469-1.363,10.443,10.443,0,0,1,2.2-2.743,8.952,8.952,0,0,1,2.125-1.537,4.884,4.884,0,0,1,1.923-.583,1.706,1.706,0,0,1,1.1.259,1.122,1.122,0,0,1,.45.92,2.549,2.549,0,0,1-.09.8,1.514,1.514,0,0,1,.041.292,3.017,3.017,0,0,1-.595,1.858,7.841,7.841,0,0,1-1.995,1.912,21.007,21.007,0,0,1-3.194,1.82,1.6,1.6,0,0,0,.385.672,1.394,1.394,0,0,0,1.126.425,3.67,3.67,0,0,0,1.467-.408,8.29,8.29,0,0,0,1.47-.966,26.778,26.778,0,0,0,2.969-2.833q2.837-3.092,4.013-4.465c.193-1.2.7-1.8,1.52-1.813a1.445,1.445,0,0,1,.654.163l.093.277a1.664,1.664,0,0,0-.052.5,4.389,4.389,0,0,0,.23,1.024c.148.5.262.918.347,1.26a5.22,5.22,0,0,1,.133,1.147,4.293,4.293,0,0,1-.058.781c0,.1.009.2.01.307a4.132,4.132,0,0,1-.41,1.855,6.231,6.231,0,0,1-1.243,1.71c-.194.2-.414.4-.654.6a4.119,4.119,0,0,0,.707-.246,8.04,8.04,0,0,0,1.4-.824q.716-.517,1.66-1.332l.017.976c-.139.141-.276.279-.413.411.111-.1.228-.193.349-.3l.013.975a21.614,21.614,0,0,1-3.29,2.815,4.948,4.948,0,0,1-2.524.978,3.533,3.533,0,0,1-2.556-1.123,3.106,3.106,0,0,1-.871-1.33,5.658,5.658,0,0,1-.173-1.126,20.521,20.521,0,0,1-3.032,3.2,4.914,4.914,0,0,1-2.874,1.2,2.43,2.43,0,0,1-2.1-.9,4.5,4.5,0,0,1-.893-2.715c-.007-.088-.009-.176-.009-.261l-4.1,4.618c-.724,1.616-.578,8.957-2.8,9.186-1.02.107-1.232-1.005-1.059-2.508a13.547,13.547,0,0,1,.6-3.748,32.159,32.159,0,0,1,1.4-3.31c.355-.882.549-1.931.871-2.835q.282-.787.5-1.447c-.6.769-1.143,1.424-1.627,1.962a11.3,11.3,0,0,1-1.713,1.622,3.106,3.106,0,0,1-1.479.659c-.494.051-.99-.3-1.487-1.039a5.351,5.351,0,0,1-.757-1.69c-.613.873-1.122,1.574-1.54,2.1a11.159,11.159,0,0,1-1.261,1.371,2.319,2.319,0,0,1-1.113.607,1.23,1.23,0,0,1-1.1-.4,2.719,2.719,0,0,1-.655-1.539,3.547,3.547,0,0,1,.036-1.184,4.053,4.053,0,0,1,.108-1.365,9.857,9.857,0,0,1,.658-1.866q.166-.363.349-.727l-.191.07c-.324.116-.667.236-1.032.363s-.645.222-.841.291a9.922,9.922,0,0,1-1.4,2.769,11.379,11.379,0,0,1-1.979,2.177,3.461,3.461,0,0,1-1.583.6q-1.345,2.615-2.753,2.934a2.315,2.315,0,0,1-1.567-.193,3.693,3.693,0,0,1-1.371-1.2,5.131,5.131,0,0,1-.808-1.741c-.121.268-.269.588-.3.651a17.523,17.523,0,0,1-1.935,3.493,4.929,4.929,0,0,1-2.5,1.863,2.452,2.452,0,0,1-2.261-.363,4.516,4.516,0,0,1-1.523-2.42c-.056-.181-.1-.365-.14-.547" fill="#447850"/>
    <path id="Контур_8235" data-name="Контур 8235" d="M-3685.308,7047.225c-1.059.209-1.973.409-2.74.6a12.236,12.236,0,0,0-2.03.685,3.658,3.658,0,0,0-1.322.93c-.669.988-1.016,1.524-1.048,1.615q-.356.942,1.1,1.387a5.8,5.8,0,0,0,2.686-.363,3.577,3.577,0,0,1,.213-1.369,5.06,5.06,0,0,1,1.1-1.711,16.551,16.551,0,0,1,2.035-1.779m-16.836-2.154a15.59,15.59,0,0,0,2.077-1.252q1.075-.75,3.164-2.318,2-1.5,3.191-2.54a21.748,21.748,0,0,0,1.833-1.748,3.073,3.073,0,0,0,.712-1.009c.034-.146.007-.231-.074-.246a3.924,3.924,0,0,0-1.749.788,28.956,28.956,0,0,0-3.284,2.452q-2.609,2.2-3.81,3.33a12.339,12.339,0,0,0-2.06,2.543m-17.261-4.366a38.026,38.026,0,0,0-6.413,2.681q-1.942,1.143-2.038,2.47a1.531,1.531,0,0,0,.127.8.562.562,0,0,0,.48.339,2.009,2.009,0,0,0,.666-.175,13.2,13.2,0,0,0,3.388-2.242q1.566-1.422,3.79-3.877m-10.51,4.641a17.836,17.836,0,0,1-3.209,2.146c-.226.118-.456.225-.682.328a8.3,8.3,0,0,1-3.355.782,5.36,5.36,0,0,1-2.412-.5,3.362,3.362,0,0,1-1.523-1.461,4.806,4.806,0,0,1-.525-2.285,7.366,7.366,0,0,1,.354-2.21,11.671,11.671,0,0,1,1.06-2.353,20.655,20.655,0,0,1,1.708-2.459,34.859,34.859,0,0,1,2.38-2.667,25.989,25.989,0,0,1,2.8-2.5,19.372,19.372,0,0,1,2.506-1.652,11.844,11.844,0,0,1,2.1-.9,5.72,5.72,0,0,1,1.6-.3,2.058,2.058,0,0,1,1.1.275,1.84,1.84,0,0,1,.706.816,2.965,2.965,0,0,1,.254,1.242,5.7,5.7,0,0,1-.986,2.949,17.56,17.56,0,0,1-2.473,3.141,21.474,21.474,0,0,1-2.836,2.474,4.35,4.35,0,0,1-1.95.962,1.132,1.132,0,0,1-.745-.286.831.831,0,0,1-.35-.646,2.728,2.728,0,0,1,.782-1.618,13.719,13.719,0,0,1,1.7-1.745,3.682,3.682,0,0,1,1.108-.8c.058,0,.086.02.086.072a.88.88,0,0,1-.136.362,1.15,1.15,0,0,0-.129.32c0,.059.026.09.075.09.148,0,.57-.359,1.267-1.067a16.942,16.942,0,0,0,1.915-2.358,4.041,4.041,0,0,0,.865-2.1.746.746,0,0,0-.165-.521.63.63,0,0,0-.485-.177,5.7,5.7,0,0,0-2.752,1.338,26.838,26.838,0,0,0-3.774,3.4,24,24,0,0,0-3.215,4.254,7.817,7.817,0,0,0-1.279,3.856,3.593,3.593,0,0,0,.329,1.6,2.254,2.254,0,0,0,.939.992,2.925,2.925,0,0,0,1.488.345,9.027,9.027,0,0,0,4.262-1.339c.484-.269,1.045-.634,1.65-1.057l.29-.255a3.016,3.016,0,0,1,.551-.714,14.537,14.537,0,0,1,1.48-1.23,20.936,20.936,0,0,1,5.158-2.8,10.51,10.51,0,0,1,3.769-.792.979.979,0,0,1,.635.3,1.948,1.948,0,0,1,.43.643,1.258,1.258,0,0,1,.142.517.431.431,0,0,1-.263.388,4.631,4.631,0,0,1-.844.261c.066.165.155.377.254.637s.184.468.244.628a1.044,1.044,0,0,1,.068.417,3.159,3.159,0,0,1-.909,1.3c-.585.628-1,1.089-1.24,1.385a1.99,1.99,0,0,0-.41,1.13.987.987,0,0,0,1.056,1.185,4.279,4.279,0,0,0,1.97-.571,12.6,12.6,0,0,0,2.376-1.559,9.617,9.617,0,0,0,1.082-.953,1.814,1.814,0,0,1-.722-.486.966.966,0,0,1-.147-.749,2.949,2.949,0,0,1,.678-1.308,8.362,8.362,0,0,1,1.436-1.416,4.093,4.093,0,0,1,1.451-.791,1.2,1.2,0,0,1,.464-.054c.226.022.32.127.295.322a2.722,2.722,0,0,1-.652.979,43.45,43.45,0,0,1,4.394-.017,1.3,1.3,0,0,1,.477.111,1.046,1.046,0,0,1,.381.681,2.86,2.86,0,0,1,.053,1.007,1.138,1.138,0,0,1-.4.652c-.238.22-.638.543-1.2.959a9.475,9.475,0,0,0-1.731,1.7,3.584,3.584,0,0,0-.792,1.448q-.092.709.876.809c.646.071,2.317-.658,4.074-1.651a13.253,13.253,0,0,1,2.232-3.3,31.209,31.209,0,0,1,4.993-4.481,36.587,36.587,0,0,1,5.231-3.2,7.145,7.145,0,0,1,3.185-1.053c.469.088.64.428.507,1.008q-.9,3.877-14.138,11.452c-.065.177-.155.523-.278,1.049-.31,1.357-.066,2.117.74,2.267a1.731,1.731,0,0,0,1.045-.169,16.393,16.393,0,0,0,1.784-1.047,3.087,3.087,0,0,1-.119-1.259,3.174,3.174,0,0,1,1.143-1.621,9.427,9.427,0,0,1,2.059-1.32,3.122,3.122,0,0,1,1.529-.428c.45.084.607.413.471,1a4.506,4.506,0,0,1-.755,1.523,16.618,16.618,0,0,1-1.612,1.92,5.159,5.159,0,0,0,.378.387.909.909,0,0,0,.462.188,8.452,8.452,0,0,0,2.506-.392,5.5,5.5,0,0,1,1.138-1.234,10.881,10.881,0,0,1,2.531-1.546,10.919,10.919,0,0,1,2.878-.853,5.546,5.546,0,0,1,2.49.1,2.771,2.771,0,0,1,1.1.564.633.633,0,0,1,.211.713,1.214,1.214,0,0,1-.611.549,1.286,1.286,0,0,1,.678.63,1.585,1.585,0,0,1-.138,1.03,6.258,6.258,0,0,1-1.011,1.626,9.675,9.675,0,0,1-1.71,1.661l.189.346.238.073a1.417,1.417,0,0,0,.577.042,4.723,4.723,0,0,0,.566-.12c.146-.038,2.372-.481,3.371-.713.209-.1.446-.2.713-.307a17.517,17.517,0,0,1,3.083-1,2.607,2.607,0,0,1,1.8.153,1.616,1.616,0,0,1,.629.561.5.5,0,0,1-.029.588.7.7,0,0,1-.275.222,1.9,1.9,0,0,1-.375.139c-.119.042-.376.1-.759.193q-3.816.933-4.284,1.592c-.178.248-.174.42.005.524a2.02,2.02,0,0,0,1-.11c.555-.14,1.28-.325,2.167-.558s1.893-.43,3-.6a26.031,26.031,0,0,1,3.58-.279,3.064,3.064,0,0,1,1.568.248c.156.089.165.362.049.82a3.916,3.916,0,0,1-.585,1.253,2.252,2.252,0,0,1-1.215.5q-4.254,1.05-4.953,2.029c-.258.364-.227.644.1.833a2.745,2.745,0,0,0,1.341.229c.618,0,1.63-.067,3.034-.191l-.628.877c-2.177.414-3.815.674-4.9.79a4.1,4.1,0,0,1-2.314-.226c-.768-.447-.823-1.13-.172-2.044a3.271,3.271,0,0,1,.708-.718,7.1,7.1,0,0,1,.977-.6c.366-.189.905-.448,1.618-.783s1.533-.709,2.455-1.122a11.655,11.655,0,0,0-3.057.3,20.215,20.215,0,0,0-2.27.523c-.658.2-1.372.427-2.153.693a13.959,13.959,0,0,1-1.642.481,1.075,1.075,0,0,1-.77-.075c-.3-.175-.378-.616-.227-1.334a5.886,5.886,0,0,1,1.035-2.2c.014-.019.027-.038.04-.058-1.251.3-2.7.592-3.012.632a4.364,4.364,0,0,1-1.913-.329c-1.93,1.049-3.413,1.41-4.462,1.09a2.6,2.6,0,0,1-1.417-1.022,3.584,3.584,0,0,1-.624-1.8,4.745,4.745,0,0,1,.187-1.749,10.494,10.494,0,0,1-3.3.522,4.336,4.336,0,0,1-1.111-.373,18.9,18.9,0,0,1-3.1,1.992,3.745,3.745,0,0,1-2.3.387,2.006,2.006,0,0,1-1.625-1.522,5.848,5.848,0,0,1,0-3.028c.027-.112.055-.223.085-.337-.975.717-1.926,1.385-2.551,1.8a12.966,12.966,0,0,1-1.821,1.015,2.911,2.911,0,0,1-1.423.3,1.412,1.412,0,0,1-1.087-.7,2.552,2.552,0,0,1-.248-1.718,3.753,3.753,0,0,1,.556-1.434,10.049,10.049,0,0,1,1.308-1.676,22.573,22.573,0,0,1,1.844-1.756c-.32.022-.677.047-1.078.072s-.812.048-1.254.072-.784.043-1.021.059a10.566,10.566,0,0,1-2.23,2.148c-.929.692-1.829,1.356-2.739,2.075-2.2,1.733-3.822,2.543-4.811,2.484a1.059,1.059,0,0,1-.9-.441,1.915,1.915,0,0,1-.191-1.151,10.058,10.058,0,0,1,1.2-3.4c-1.746,1.53-3.039,2.621-3.878,3.261a3.47,3.47,0,0,1-2.033.918,1.493,1.493,0,0,1-.88-.628,5.323,5.323,0,0,1-.866-1.546,4.332,4.332,0,0,1-.3-1.8m-29.489-4.508-.3-2.125c-.589.689-1.851,2.02-3.8,3.981a2.531,2.531,0,0,1,1.205.5,7.938,7.938,0,0,1,.924,1.225,3.54,3.54,0,0,0,1.505-1.14,3.165,3.165,0,0,0,.5-1.94c0-.1,0-.188-.009-.263s-.017-.154-.03-.234m-11.776,1.936a8.185,8.185,0,0,0,2.179-1.381,6.374,6.374,0,0,0,1.3-1.515,2.3,2.3,0,0,0,.391-1.036c-.013-.224-.117-.329-.32-.319a2.037,2.037,0,0,0-.84.379,7.1,7.1,0,0,0-1.147.932,6.381,6.381,0,0,0-1.02,1.323,4.13,4.13,0,0,0-.545,1.617m-26.874.156c-.678.654-1.254,1.235-1.723,1.749a10.164,10.164,0,0,0-1.156,1.486,3.223,3.223,0,0,0-.51,1.369c.007,1.115.022,1.716.042,1.8.143.627.65.838,1.519.64a4.578,4.578,0,0,0,1.808-1.522,3.9,3.9,0,0,1-.538-1.224,5.053,5.053,0,0,1-.049-1.907,15.3,15.3,0,0,1,.607-2.392m-11.838,6.8a8.209,8.209,0,0,0,1.778-1.868,6.439,6.439,0,0,0,.9-1.786,2.31,2.31,0,0,0,.129-1.1c-.065-.214-.193-.29-.387-.231a2.074,2.074,0,0,0-.723.567,7.275,7.275,0,0,0-.888,1.185,6.529,6.529,0,0,0-.67,1.53,4.191,4.191,0,0,0-.137,1.7m30.166-9.383a13.666,13.666,0,0,0-1.436,1.245,9.371,9.371,0,0,0-1.767,2.077,3.1,3.1,0,0,0-.562,1.87.984.984,0,0,0,.252.6.624.624,0,0,0,.521.182,2.1,2.1,0,0,0,1.108-.586,20.2,20.2,0,0,0,1.762-1.839,30.767,30.767,0,0,0,2.317-3.158c.391-.578.656-1.168.248-1.411-.542-.324-1.946.682-2.443,1.016m-32.309,11.165c-1.273,2.691-3.288,5.65-4.606,8.22-.171,1.342-.336,2.449-.507,3.339s-.319,1.626-.464,2.23-.218.911-.223.924a2.193,2.193,0,0,1-.362.761,1.834,1.834,0,0,1-.582.606.985.985,0,0,1-.816.078,1.133,1.133,0,0,1-.641-.543,3.788,3.788,0,0,1-.127-2.764,15.763,15.763,0,0,1,1.834-4.1c.141-1.352.243-2.7.322-4.03s.118-2.539.127-3.613,0-2.114-.047-3.123c-.33.854-.671,1.677-1.011,2.486s-.688,1.581-1.028,2.327-.551,1.217-.628,1.394-.156.331-.211.464q-1.152,3.166-2.251,3.77a2.407,2.407,0,0,1-2.311-.023,4.812,4.812,0,0,1-2.1-2.123,8.016,8.016,0,0,1-.8-2.162,11.325,11.325,0,0,1-.238-2.661,15.138,15.138,0,0,1,.343-2.95,16.958,16.958,0,0,1,.9-2.949,24.2,24.2,0,0,1,2.374-4.346,28.263,28.263,0,0,1,2.915-3.661,11.019,11.019,0,0,1,2.276-1.961,1.331,1.331,0,0,1,.9-.191,1.447,1.447,0,0,1,.763.414,3.21,3.21,0,0,1,.588.778,1.756,1.756,0,0,1,.195.961,5.21,5.21,0,0,1-.659,1.871,21.586,21.586,0,0,1-1.287,2.11,6.312,6.312,0,0,1-.83,1.064c-.051.028-.087.026-.106-.007-.044-.081-.009-.256.093-.535s.219-.57.36-.881a2.537,2.537,0,0,0,.226-1.794,19.3,19.3,0,0,0-1.96,2.267,21.389,21.389,0,0,0-1.685,2.681,30.207,30.207,0,0,0-1.424,3.1,17.556,17.556,0,0,0-.993,3.643,13.736,13.736,0,0,0-.182,3.075,4.777,4.777,0,0,0,.394,1.878,1.241,1.241,0,0,0,.672.582,1.032,1.032,0,0,0,.9-.084,3.146,3.146,0,0,0,1.069-1.206,22.659,22.659,0,0,0,1.159-2.349q.586-1.364,1.06-2.556c.318-.8.65-1.667,1.012-2.606q.5-1.3.754-2.058a6.493,6.493,0,0,0,.308-1.264,2.253,2.253,0,0,1,.6-1.444,1.134,1.134,0,0,1,1.023-.289,1.163,1.163,0,0,1,.815.591,6.3,6.3,0,0,1,.1,1.5q.018,1.344-.033,3.951t-.25,6.2a61.705,61.705,0,0,0,4.163-6.355,5.408,5.408,0,0,1,.127-.95,10.56,10.56,0,0,1,1.471-3.193,8.876,8.876,0,0,1,1.689-2,4.838,4.838,0,0,1,1.726-1.028,1.722,1.722,0,0,1,1.129-.018,1.124,1.124,0,0,1,.661.786,3.028,3.028,0,0,1-.128,1.946,7.922,7.922,0,0,1-1.473,2.34,21.493,21.493,0,0,1-2.808,2.659l.106.347a1.947,1.947,0,0,0,.793,1.157,1.388,1.388,0,0,0,1.2.141,3.69,3.69,0,0,0,1.321-.749,8.238,8.238,0,0,0,1.195-1.294q.521-.694,1.219-1.775c.029-.045.272-.431.412-.657a5.267,5.267,0,0,1,.218-1.374,9.326,9.326,0,0,1,1.094-2.426,8.835,8.835,0,0,1,1.7-2.017,4.42,4.42,0,0,1,1.891-1.056,2.367,2.367,0,0,1,1.1-.037.653.653,0,0,1,.518.492,1.113,1.113,0,0,1-.176.728,1.217,1.217,0,0,1,.825.207,1.747,1.747,0,0,1,.414.911,6.166,6.166,0,0,1,.076,1.8,8.942,8.942,0,0,1-.428,2.145l.316.2.213-.049a1.092,1.092,0,0,0,.448-.229c.137-.119.247-.243.359-.354a7.717,7.717,0,0,0,1.563-1.973c.054-.116.111-.24.168-.376a1.571,1.571,0,0,1-.729-.283.992.992,0,0,1-.32-.661,2.966,2.966,0,0,1,.228-1.376,7.673,7.673,0,0,1,.832-1.651,3.41,3.41,0,0,1,1.012-1.074.959.959,0,0,1,.373-.16c.2-.03.3.044.333.232a2.721,2.721,0,0,1-.292,1.061,34.14,34.14,0,0,1,3.676-1.049,1.041,1.041,0,0,1,.426,0,1.02,1.02,0,0,1,.5.541,3.13,3.13,0,0,1,.307.926,1.152,1.152,0,0,1-.165.7,13.521,13.521,0,0,1-.754,1.171,8.749,8.749,0,0,0-1,1.985,3.55,3.55,0,0,0-.288,1.531c.071.451.385.635.942.548s1.456-.8,2.665-2.143a3.411,3.411,0,0,1,.155-.894,6.055,6.055,0,0,1,.7-1.449,10.9,10.9,0,0,1,1.307-1.635,15.792,15.792,0,0,1,1.921-1.706,7.5,7.5,0,0,1,3.351-1.764,2.471,2.471,0,0,1,2.179.919,3.763,3.763,0,0,1,.591,1.81,5.253,5.253,0,0,1-.4,2.091q-.411,1.343-1.413,4.156l3.5-3.153a5.2,5.2,0,0,1,.469-1.362,10.486,10.486,0,0,1,2.2-2.742,8.961,8.961,0,0,1,2.127-1.541,4.931,4.931,0,0,1,1.923-.58,1.687,1.687,0,0,1,1.1.26,1.115,1.115,0,0,1,.449.916,3.017,3.017,0,0,1-.594,1.862,7.892,7.892,0,0,1-2,1.915,21.618,21.618,0,0,1-3.366,1.9l.02.363a1.943,1.943,0,0,0,.489,1.316,1.39,1.39,0,0,0,1.126.424,3.67,3.67,0,0,0,1.466-.4,8.282,8.282,0,0,0,1.472-.969,26.975,26.975,0,0,0,2.968-2.829q2.837-3.1,4.012-4.466.3-1.8,1.519-1.815a1.479,1.479,0,0,1,.657.164l.091.277a1.687,1.687,0,0,0-.052.494,4.5,4.5,0,0,0,.232,1.027c.148.5.261.915.348,1.258a5.446,5.446,0,0,1,.131,1.15,4.009,4.009,0,0,1-.41,1.852,6.2,6.2,0,0,1-1.24,1.71,13.636,13.636,0,0,1-2.116,1.687,5.039,5.039,0,0,0,.834.074,3.249,3.249,0,0,0,1.284-.317,8.027,8.027,0,0,0,1.4-.822c.478-.346,1.036-.789,1.662-1.333l.015.977a21.618,21.618,0,0,1-3.29,2.814,4.987,4.987,0,0,1-2.522.981,3.541,3.541,0,0,1-2.557-1.126,3.113,3.113,0,0,1-.871-1.328,5.637,5.637,0,0,1-.174-1.127,20.676,20.676,0,0,1-3.031,3.2,4.914,4.914,0,0,1-2.874,1.2,2.433,2.433,0,0,1-2.1-.9,4.508,4.508,0,0,1-.9-2.715c-.005-.089-.008-.177-.008-.263l-4.1,4.62c-.723,1.616-.579,8.956-2.8,9.186-1.57.162-1.224-2.556-.5-5.17a31.1,31.1,0,0,1,1.4-3.307c.353-.882.546-1.93.869-2.835q.71-2,1.064-3.2c-.814,1.061-1.522,1.933-2.136,2.621a11.46,11.46,0,0,1-1.713,1.624,3.146,3.146,0,0,1-1.48.657c-.494.053-.992-.3-1.488-1.04a5.291,5.291,0,0,1-.757-1.691q-.918,1.313-1.538,2.1a11.129,11.129,0,0,1-1.262,1.372,2.316,2.316,0,0,1-1.113.609,1.245,1.245,0,0,1-1.1-.4,2.743,2.743,0,0,1-.654-1.543,3.964,3.964,0,0,1,.093-1.46,9.893,9.893,0,0,1,.66-1.864,21.3,21.3,0,0,1,1.088-2.067c-.262.1-.551.2-.882.321l-1.03.362c-.364.123-.647.222-.841.295a10.04,10.04,0,0,1-1.4,2.768,11.444,11.444,0,0,1-1.979,2.178,3.5,3.5,0,0,1-1.583.6c-.9,1.74-1.813,2.718-2.753,2.931a2.3,2.3,0,0,1-1.567-.193,3.734,3.734,0,0,1-1.372-1.2,5.1,5.1,0,0,1-.808-1.741c-.122.268-.267.589-.3.65a17.419,17.419,0,0,1-1.935,3.5,4.921,4.921,0,0,1-2.5,1.861,2.444,2.444,0,0,1-2.261-.363,4.516,4.516,0,0,1-1.525-2.42c-.054-.183-.1-.365-.139-.546" fill="#447850"/>
    <g id="Сгруппировать_1302" data-name="Сгруппировать 1302">
      <path id="Контур_8236" data-name="Контур 8236" d="M-3795.325,7129.379a3.71,3.71,0,0,1-.767,2.548,2.928,2.928,0,0,1-2.295.852h-5.81a2.947,2.947,0,0,1-2.307-.852,3.689,3.689,0,0,1-.772-2.548v-5.809a3.754,3.754,0,0,1,.759-2.575,2.972,2.972,0,0,1,2.32-.842h5.81a2.957,2.957,0,0,1,2.315.834,3.785,3.785,0,0,1,.747,2.583Zm-8-.049h4.06v-5.76h-4.06Z" fill="#447850"/>
      <path id="Контур_8237" data-name="Контур 8237" d="M-3793.872,7132.779v-12.626h3.6v12.626Z" fill="#447850"/>
      <path id="Контур_8238" data-name="Контур 8238" d="M-3782.12,7131.633a1.688,1.688,0,0,1-.685.883,2.53,2.53,0,0,1-1.279.263h-2.2a2.465,2.465,0,0,1-1.882-.687,2.787,2.787,0,0,1-.651-1.986v-3.92a2.771,2.771,0,0,1,.656-1.987,2.453,2.453,0,0,1,1.877-.7h2.336a2.52,2.52,0,0,1,1.06.191,2.081,2.081,0,0,1,.764.652v-4.193h3.6v9.418h.611v3.208h-2.213a2.548,2.548,0,0,1-1.258-.254A1.923,1.923,0,0,1-3782.12,7131.633Zm-3.062-2.062h3.062v-2.856h-3.062Z" fill="#447850"/>
      <path id="Контур_8239" data-name="Контур 8239" d="M-3769.476,7132.779h-4.614a2.5,2.5,0,0,1-2.018-.713,3.949,3.949,0,0,1-.6-2.5v-3.227h-.866v-1.85h.866v-4.341h3.681v4.341h3.482v1.85h-3.482v3.227h3.549Z" fill="#447850"/>
      <path id="Контур_8240" data-name="Контур 8240" d="M-3768.205,7122.382v-2.229h3.6v2.229Zm0,10.4V7123.5h3.6v9.276Z" fill="#447850"/>
      <path id="Контур_8241" data-name="Контур 8241" d="M-3763.047,7132.779V7123.5h3.6v.745a2.093,2.093,0,0,1,.752-.571,2.411,2.411,0,0,1,.957-.174h1.914a2.427,2.427,0,0,1,1.049.21,1.067,1.067,0,0,1,.569.567,1.272,1.272,0,0,1,.666-.577,2.925,2.925,0,0,1,1.147-.2h1.983a2.523,2.523,0,0,1,1.858.508,3.262,3.262,0,0,1,.461,2.076v3.484h.651v3.208h-1.921a2.237,2.237,0,0,1-1.762-.66,2.875,2.875,0,0,1-.591-1.972v-3.432h-2.071v6.064h-3.565v-6.064h-2.113v6.064Z" fill="#447850"/>
      <path id="Контур_8242" data-name="Контур 8242" d="M-3738.148,7132.779h-5.868a2.617,2.617,0,0,1-1.95-.674,2.771,2.771,0,0,1-.665-2.016v-3.762a2.812,2.812,0,0,1,.746-2.068,2.728,2.728,0,0,1,2.026-.756h5.134a2.038,2.038,0,0,1,1.691.7,3.365,3.365,0,0,1,.562,2.123v2.549H-3743v.892h4.851Zm-4.851-5.337h3.159v-.9H-3743Z" fill="#447850"/>
      <path id="Контур_8243" data-name="Контур 8243" d="M-3735.192,7132.779V7123.5h3.655v.71a1.18,1.18,0,0,1,.545-.553,2.774,2.774,0,0,1,1.089-.157h1.914a2.1,2.1,0,0,1,1.557.483,2.349,2.349,0,0,1,.467,1.646v2.957h-3.443v-1.874h-2.129v6.064Z" fill="#447850"/>
      <path id="Контур_8244" data-name="Контур 8244" d="M-3720.989,7131.633a1.963,1.963,0,0,1-.75.892,2.579,2.579,0,0,1-1.263.254h-2.2v-3.208h.6v-9.418h3.606v4.193a2.1,2.1,0,0,1,.759-.652,2.519,2.519,0,0,1,1.065-.191h2.328a2.465,2.465,0,0,1,1.885.7,2.775,2.775,0,0,1,.655,1.987v3.92a2.774,2.774,0,0,1-.655,1.986,2.477,2.477,0,0,1-1.885.687h-2.212a2.482,2.482,0,0,1-1.267-.263A1.643,1.643,0,0,1-3720.989,7131.633Zm3.038-2.062v-2.856h-3.038v2.856Z" fill="#447850"/>
      <path id="Контур_8245" data-name="Контур 8245" d="M-3702.313,7123.5v9.276h-3.6v-.874a2.9,2.9,0,0,1-1.037.656,3.818,3.818,0,0,1-1.35.218h-2.178a2.121,2.121,0,0,1-1.758-.736,3.43,3.43,0,0,1-.594-2.183v-3.145h-.744V7123.5h2.178a2.214,2.214,0,0,1,1.628.549,2.26,2.26,0,0,1,.544,1.646v3.873h3.311V7123.5Z" fill="#447850"/>
      <path id="Контур_8246" data-name="Контур 8246" d="M-3700.894,7132.779v-3.208h6.629v-.777h-4.581a1.95,1.95,0,0,1-1.517-.561,2.375,2.375,0,0,1-.513-1.66v-.889a2.34,2.34,0,0,1,.5-1.648,2.033,2.033,0,0,1,1.548-.533h6.965v3.212h-5.563v.776h4.491a2.17,2.17,0,0,1,1.639.557,2.422,2.422,0,0,1,.531,1.72v.967a2.024,2.024,0,0,1-.54,1.539,2.317,2.317,0,0,1-1.63.5Z" fill="#447850"/>
    </g>
  </g>
</svg>
