<svg xmlns="http://www.w3.org/2000/svg" width="50.74" height="67.381" viewBox="0 0 50.74 67.381">
  <g id="Mode_Isolation" data-name="Mode Isolation" transform="translate(-415.929 -3851.622)">
    <g id="Сгруппировать_840" data-name="Сгруппировать 840">
      <path id="Контур_5290" data-name="Контур 5290" d="M452.909,3870.716l0-1.573-3.67-.01,0-1.923-2.534-.007.007-2.622-2.534-.007.007-2.622-1.573,0,.018-7.079-2.01-.005.006-2.272-1.835,0,0-.961-2.534-.007h0l-.008,3.233-2.185-.006,0,1.66-1.66,0-.008,3.233-1.748,0-.007,2.8-1.486,0-.008,2.971-1.923,0-.018,6.991,2.971.008-.009,3.321,1.748,0-.007,2.709,1.573,0-.006,2.185-1.486,0,0,1.486-1.66,0-.011,4.195,2.01.005,0,.961,3.67.01,0,1.923,6.2.016,0-1.573,1.748,0,0-1.486,2.971.008,0,1.224,1.923,0,0,1.049,2.622.007.021-8.127,1.66,0,.008-2.971,1.4,0,.006-2.36,1.136,0,.011-4.369Z" fill="#fff8e9"/>
      <path id="Контур_5291" data-name="Контур 5291" d="M466.616,3909.9c.088-.175.088-.35-.174-.525a8.854,8.854,0,0,0-2.272.169,3.874,3.874,0,0,1-.787.085H463.3a2.057,2.057,0,0,1-1.135-.44c-.611-.351-1.135-.615-1.486,0a3.515,3.515,0,0,1-.446,3.669,1.794,1.794,0,0,1-1.924.432c-.873-.351-1.307-1.4-1.3-2.8h0c.526-.523,1.139-1.045,1.753-1.743,2.891-2.876,6.921-6.711,7.714-9.331q-.129-.918-.784-1.05c-1.746-.442-5.866,4.179-6.392,4.964a23.217,23.217,0,0,0-3.073,5.585h0c-1.665,1.831-5.252,3.4-7.786,2.952a3.484,3.484,0,0,1-2.7-2.192v-.088h.088c3.059-.429,4.636-1.649,4.813-2.61a.714.714,0,0,0-.348-.874c-.61-.439-2.271-.356-4.635,1.386a2.706,2.706,0,0,1-3.148.866c-.262,0-.524-.089-.786-.09h0a8.165,8.165,0,0,1-.873-.439c-.524-.264-.611-.351-1.136,0-.266,1.4-1.234,3.929-2.284,4.626a.727.727,0,0,1-.7.173.8.8,0,0,1-.611-.264,2.338,2.338,0,0,1-.346-1.487c.266-1.4.268-2.1.006-2.184-.262-.176-1.051.784-1.752,1.568-1.052,1.221-2.191,2.616-2.889,2.178a1.213,1.213,0,0,1-.784-1.313c0-1.486.971-3.581,1.583-3.841,1.137-.172,3.587-1.215,3.676-2.088,0-.35-.26-.613-.959-.789-.7-.264-2.012.781-2.975,1.565a4.016,4.016,0,0,1-.876.609h0a9.462,9.462,0,0,1-2.273.344,2.157,2.157,0,0,0-1.574.52c0,.088,0,.263.086.263.349.35,1.311.178,2.1.093a4.615,4.615,0,0,1,.961-.085h.087v.087c-1.492,2.443-.973,4.455.074,5.157.873.614,2.62.618,4.461-1.474l.088-.088v.088a1.915,1.915,0,0,0,.957,1.75,2.272,2.272,0,0,0,2.448-.256c1.05-.521,1.666-2.268,2.106-3.315a6.025,6.025,0,0,1,.264-.7h0a8.479,8.479,0,0,0,3.844.272h0a4.2,4.2,0,0,0,2.7,3.066c2.62.968,6.381-.246,8.657-1.9l.088-.087v.087a3.493,3.493,0,0,0,1.74,3.326,3.121,3.121,0,0,0,3.146-.167,3.353,3.353,0,0,0,1.407-3.317v-.088h.088C462.944,3910.5,466.177,3910.6,466.616,3909.9Zm-9.26-1.423a28.741,28.741,0,0,1,1.932-3.665c1.054-2.007,4.646-5.406,6.045-5.665h.087v.088c-1.055,2.444-4.911,6.629-8.064,9.242l-.088.175Zm-11.361-.029a4.649,4.649,0,0,1,3.151-1.74h0a.189.189,0,0,1,.174.176c0,.174-.176.349-.7.61a8.526,8.526,0,0,1-2.536.954c0,.088-.088.087-.088,0Zm-13.015-2.481a6.265,6.265,0,0,1,1.226-.87l.35-.174-.263.261a12.493,12.493,0,0,1-1.313.783l-.175.175Z" fill="#fff8e9"/>
      <path id="Контур_5292" data-name="Контур 5292" d="M433,3898.193c-.694-2.1-2.72,3.925-3.244,3.924-3.155,3.313-3.317-1.407-1.824-4.374,2.632-4.1-2.8-.27-3.232-.446-.875.348-2.191,2.354-2.8,2.964-.872-.788-1.126-4.023-2.874-3.852-2.1.256-3.505,3.486-2.986,5.41,1.566,2.8,3.844.622,4.375-2.086a8.385,8.385,0,0,1,.783,1.575,34.253,34.253,0,0,0-3.167,7.945c-1.322,4.191.056,12.06,4.7,9.1,3.156-3.837,2.3-11.879.216-15.9-.522-1.225-.784-.964-.17-1.923,1.316-2.094,2.191-2.354,4.115-2.873C423.537,3908.043,431.236,3904.568,433,3898.193Zm-13.726,1.974c-.355,2.271-2.366,2.7-2.361.518-.084-1.049,1.233-3.754,2.281-3.315C419.633,3897.109,419.538,3899.993,419.275,3900.167Zm4.691,10.761c-.206,12.06-7.882,6.8-4.8-2.2.353-1.31,1.849-5.588,2.551-6.46A19.666,19.666,0,0,1,423.966,3910.928Z" fill="#fff8e9"/>
      <path id="Контур_5293" data-name="Контур 5293" d="M435.544,3894.7c2.882.531-.534,3.581-2.632,4.1a2.01,2.01,0,0,0,2.529,1.929c3.32.271,5.694-5.316,6.126-3.479-1.144,3.055-7.533,6.8-9.444,2.509C430.991,3898.187,433.971,3894.787,435.544,3894.7Zm-2.368,3.052h-.087c.437.176,2.713-1.566,2.54-2A3.2,3.2,0,0,0,433.176,3897.756Z" fill="#fff8e9"/>
      <path id="Контур_5294" data-name="Контур 5294" d="M450.134,3896.314c1.571.7-2.464,6.723-4.036,6.2-2.274.606-2-4.2-2.96-4.377-.872-.7-3.076,6.9-3.769,4.447.528-1.659.628-6.378,1.761-5.239,0,.786-.441,1.659-.444,2.883a.085.085,0,0,0-.087-.088c.527-1.31,3.072-5.148,3.849-1.563.345,1.661.605,2.536.78,2.536C447.582,3903.037,449.17,3897.535,450.134,3896.314Z" fill="#fff8e9"/>
      <path id="Контур_5295" data-name="Контур 5295" d="M453.274,3898.769h0c1.139-1.22,1.235-4.541-.863-4.371-1.922,0-3.857,4.621-3.6,6.2C449.413,3904.7,452.746,3899.9,453.274,3898.769Zm-2.89,2.265c-2.359-.093,2.031-8.122,2.809-4.886C453.452,3897.372,450.646,3901.21,450.384,3901.034Z" fill="#fff8e9"/>
      <path id="Контур_5296" data-name="Контур 5296" d="M453.277,3897.633c-.011,4.283-.548,9-3.177,11.877-.175.175,0,.175.086.35,2.53,1.842,5.809-15.715,3.091-12.227Z" fill="#fff8e9"/>
      <path id="Контур_5297" data-name="Контур 5297" d="M454.845,3899.473v.087a9.27,9.27,0,0,0,.609.876,4.121,4.121,0,0,0,3.756.708,11.837,11.837,0,0,0,3.765-2.786,8.281,8.281,0,0,0,.791-1.484.392.392,0,0,0,0-.437h0a.426.426,0,0,0-.787,0,7.831,7.831,0,0,1-3.767,3.748l-.263.087a3.5,3.5,0,0,1-1.573.258,2.226,2.226,0,0,1-1.4-1.052h0v-.088a13.935,13.935,0,0,0,1.84-1.655,3.587,3.587,0,0,0,.88-2.62c-.173-.437-.61-.613-1.309-.44l-.088.087a2.057,2.057,0,0,0-.876.7,5.647,5.647,0,0,0-1.4,2.094c-.089.349-.264.523-.265.873S454.845,3899.473,454.845,3899.473Zm1.141-1.92a4.452,4.452,0,0,1,1.578-2.093h.175c.087.175-.176.7-.616,1.572a6.271,6.271,0,0,1-1.226,1.133C455.81,3897.99,455.9,3897.815,455.986,3897.553Z" fill="#fff8e9"/>
      <path id="Контур_5298" data-name="Контур 5298" d="M432.923,3894.347c.7-1.134,3.5-1.476,3.151-1.914C434.678,3891.468,428.9,3895.56,432.923,3894.347Z" fill="#fff8e9"/>
    </g>
  </g>
</svg>
