<svg xmlns="http://www.w3.org/2000/svg" width="713.674" height="88.767" viewBox="0 0 713.674 88.767">
  <g id="Сгруппировать_618" data-name="Сгруппировать 618" transform="translate(-603.163 -268.699)">
    <path id="Контур_3895" data-name="Контур 3895" d="M717.249,294.655q1.512-1.953,2.992-4.1a22.61,22.61,0,0,0,2.394-4.41,12.779,12.779,0,0,0,.946-4.631,8.874,8.874,0,0,0-1.356-4.693,7.033,7.033,0,0,0-1.322-1.481q-.945-.85-2.142-1.764t-2.395-1.732q-1.2-.819-2.078-1.387l-2.332-1.763,2.647,7.119a7.647,7.647,0,0,1,3.149,1.952,5.525,5.525,0,0,1,1.356,2.647,6.9,6.9,0,0,1-.127,3.055,15.934,15.934,0,0,1-1.2,3.182,16.967,16.967,0,0,1-1.891,2.961,23.455,23.455,0,0,1-2.236,2.457,286.621,286.621,0,0,1-24.035,26.869q-12.82,12.633-25.8,23.279a43.365,43.365,0,0,1-3.685,2.772,35.166,35.166,0,0,1-4.158,2.425,24.21,24.21,0,0,1-4.126,1.607,7.279,7.279,0,0,1-3.56.22,3.939,3.939,0,0,1-2.488-1.795,7.9,7.9,0,0,1-.945-4.284,23.314,23.314,0,0,1,.819-5.67,63.724,63.724,0,0,1,4.473-12.443,125.089,125.089,0,0,1,6.93-12.537q3.969-6.332,8.788-12.915t10.112-13.639q2.016-3.717,1.48-6.174a5.087,5.087,0,0,0-2.677-3.591,12.218,12.218,0,0,0-4.662-1.26,35.651,35.651,0,0,0-5.607-.063q-2.835.189-5.323.6t-3.875.725q-5.23,1.134-10.522,2.551T634.31,281.96q-5.2,1.8-10.206,4a91.553,91.553,0,0,0-9.608,4.914q-2.206,1.323-4.473,2.961a21.5,21.5,0,0,0-3.969,3.685,13.543,13.543,0,0,0-2.489,4.442,8.612,8.612,0,0,0-.031,5.1,21.224,21.224,0,0,0,1.008,2.614q.691,1.545,1.48,3.245t1.67,3.37q.882,1.669,1.575,2.93l.567-8.316-.63-1.386a7.188,7.188,0,0,1-1.292-4.725,9.092,9.092,0,0,1,1.606-4.1,15.987,15.987,0,0,1,3.308-3.434q1.986-1.544,3.875-2.74a119.144,119.144,0,0,1,17.64-8.159,121.92,121.92,0,0,1,18.711-5.323q.566-.126,2.236-.441t3.875-.6q2.2-.283,4.568-.472a30.9,30.9,0,0,1,4.377-.063,10.475,10.475,0,0,1,3.308.661,1.808,1.808,0,0,1,1.292,1.733,2.2,2.2,0,0,1-.19.787,9.771,9.771,0,0,1-.85,1.481q-.662,1.008-1.952,2.8t-3.434,4.757q-3.719,5.04-7.371,10.269t-6.9,10.71q-3.246,5.481-5.922,11.151a76.709,76.709,0,0,0-4.38,11.592,28.9,28.9,0,0,0-1.26,8,13.566,13.566,0,0,0,1.323,6.615,6.909,6.909,0,0,0,3.5,3.181,9.88,9.88,0,0,0,4.977.473,23.815,23.815,0,0,0,5.7-1.544,35.882,35.882,0,0,0,5.7-2.929,47.749,47.749,0,0,0,5.008-3.591q5.922-5.1,11.845-10.332t12.1-11.246q6.174-6.015,12.789-13.2T717.249,294.655Z" fill="#a26b25"/>
    <path id="Контур_3896" data-name="Контур 3896" d="M829.859,323.194a18.648,18.648,0,0,1-4.316,2.016,5.664,5.664,0,0,0-.756-.536,3.307,3.307,0,0,0-.944-.346,28.612,28.612,0,0,0,4.063-3.371,17.875,17.875,0,0,0,2.992-3.874,8.929,8.929,0,0,0,1.009-2.394,7.582,7.582,0,0,0,.283-2.583,3.392,3.392,0,0,0-.851-2.048,3.048,3.048,0,0,0-2.393-.85,8.5,8.5,0,0,0-2.961.535,17.955,17.955,0,0,0-2.8,1.323A24.036,24.036,0,0,0,820.6,312.8q-1.229.945-2.3,1.7-2.772,2.018-5.922,4.252t-5.8,4.064l.085.12c-.991.674-1.978,1.334-2.951,1.959q-1.669,1.071-3.276,1.953a21.737,21.737,0,0,1-2.992,1.386v-.063a5.868,5.868,0,0,1-2.426.756,1.469,1.469,0,0,1-1.291-.536,2.1,2.1,0,0,1-.252-1.512,7.845,7.845,0,0,1,.755-2.3q1.638-.819,3.623-1.953t3.875-2.363q1.889-1.229,3.5-2.488a14.472,14.472,0,0,0,2.489-2.394,4.418,4.418,0,0,0,1.07-2.426,3.964,3.964,0,0,0-.44-2.331,4.063,4.063,0,0,0-1.67-1.638,3.83,3.83,0,0,0-2.551-.346,10.557,10.557,0,0,0-4.631,2.205,26.527,26.527,0,0,0-4.095,4.032,34.058,34.058,0,0,0-3.244,4.693c-.437.764-.813,1.475-1.137,2.14-1.409,1.163-2.873,2.281-4.407,3.341q-3.78,2.615-7.875,5.135a28.932,28.932,0,0,0,1.953-2.867q.882-1.479,1.953-2.929,1.448-1.512,2.929-3.056t2.741-2.992l2.079-2.268a4.836,4.836,0,0,0,1.134-1.1,6.444,6.444,0,0,0,1.07-1.89,4.332,4.332,0,0,0,.253-2.047,2.195,2.195,0,0,0-1.259-1.638,5.678,5.678,0,0,0-3.151-.819,13.491,13.491,0,0,0-6.489,1.921,31.929,31.929,0,0,0-6.615,4.946,35.984,35.984,0,0,0-3.087,3.37c-.454.562-.875,1.122-1.273,1.68-.957.718-1.808,1.359-2.538,1.911q-1.293.978-2.425,1.764t-2.331,1.512q-1.2.725-2.835,1.67h.063q-1.2.189-.694-.756a15.027,15.027,0,0,1,1.921-2.552q1.419-1.607,3.371-3.685a54.937,54.937,0,0,0,3.591-4.221,9.676,9.676,0,0,0,.914-1.355,8.165,8.165,0,0,0,.819-1.921,4.442,4.442,0,0,0,.125-1.953,2.121,2.121,0,0,0-1.165-1.512,5.663,5.663,0,0,0-3.149-.819,13.577,13.577,0,0,0-6.458,1.921,31.547,31.547,0,0,0-6.646,4.946,35.984,35.984,0,0,0-3.087,3.37c-.421.521-.807,1.039-1.18,1.556q-3.355,2.555-6.821,4.776-3.656,2.331-7.308,4.536l.189-.252q.818-1.26,1.8-2.678t2.047-2.866q1.575-1.575,3.277-3.339t3.307-3.465q1.606-1.7,2.993-3.213t2.394-2.646c.084-.084.293-.294.63-.63a7.275,7.275,0,0,0,1.008-1.323h-4.726l-1.7,1.7q-1.071,1.134-2.8,2.929t-3.686,3.78q-1.954,1.984-3.969,3.938t-3.686,3.5a28.632,28.632,0,0,1-2.835,2.363q-1.165.819-1.417.567a1.59,1.59,0,0,1,.094-1.008,14.175,14.175,0,0,1,.6-1.418,16.23,16.23,0,0,1,.913-1.638q.535-.85,1.04-1.669v.063q.5-.756,1.764-2.3t2.835-3.339q1.574-1.8,3.339-3.528a24.642,24.642,0,0,1,3.339-2.8q-.694-.189-1.544-.347l-1.543-.283c-.463-.084-.84-.167-1.135-.252s-.42-.168-.377-.252a66.461,66.461,0,0,0-5.954,5.953,50.273,50.273,0,0,0-4.058,5.2l-1.769,1.2q-.883.63-2.015,1.48a18.844,18.844,0,0,1-2.584,1.607c-.546.336-.883.388-1.008.157a2.04,2.04,0,0,1-.126-1.1q1.008-1.008,2.269-2.457a34.144,34.144,0,0,0,2.362-3.056,19.489,19.489,0,0,0,1.826-3.276,7.865,7.865,0,0,0,.725-3.118,3.321,3.321,0,0,0-.566-1.985,3.421,3.421,0,0,0-1.955-1.165,7.165,7.165,0,0,0-3.275,0,16.27,16.27,0,0,0-3.78,1.323,27.129,27.129,0,0,0-3.938,2.362,37.733,37.733,0,0,0-3.748,3.056,36.261,36.261,0,0,0-3.087,3.37,32.772,32.772,0,0,0-2.52,3.56,19.048,19.048,0,0,0-1.669,3.433,8.994,8.994,0,0,0-.6,2.993,3.785,3.785,0,0,0,.976,2.646,3.221,3.221,0,0,0,2.489,1.071,7.2,7.2,0,0,0,2.489-.5,21.218,21.218,0,0,0,2.74-1.26,28.655,28.655,0,0,0,2.773-1.733q1.384-.977,2.519-1.921a4.972,4.972,0,0,0,1.355,1.669,2.973,2.973,0,0,0,1.859.6,4.331,4.331,0,0,0,2.015-.567,24.518,24.518,0,0,0,2.929-1.67c.044-.028.084-.056.127-.084-.071.279-.136.559-.19.84a5.479,5.479,0,0,0,.189,3.119q.535,1.323,2.678,1.323a5.18,5.18,0,0,0,1.512-.252q.817-.25,1.7-.567a15.352,15.352,0,0,0-.913,1.26q-.411.629-.788,1.26a116.87,116.87,0,0,0-9.67,6.961,32.472,32.472,0,0,0-6.269,6.332,12.277,12.277,0,0,0-1.827,4.1,6.706,6.706,0,0,0-.032,3.591,2.292,2.292,0,0,0,1.985,1.669q1.512.221,4.158-1.669a33.353,33.353,0,0,0,4.126-3.78,53.55,53.55,0,0,0,3.655-4.41q1.731-2.332,3.275-4.82t3.056-5.071q4.094-2.711,7.088-4.662t5.2-3.434q1.6-1.071,2.925-1.976a7.843,7.843,0,0,0-.28,1.945,4.161,4.161,0,0,0,.756,2.457,2.869,2.869,0,0,0,2.331,1.071,5.772,5.772,0,0,0,1.828-.315,13.069,13.069,0,0,0,1.858-.788q.912-.473,1.638-.945a12.093,12.093,0,0,0,1.1-.787l.882-.693c-.041.252-.074.483-.094.693a5.494,5.494,0,0,0-.032.567,2.426,2.426,0,0,0,.788,2.016q.786.629,2.8-.126a16.7,16.7,0,0,0,2.614-1.26q1.544-.882,3.245-1.985c.762-.493,1.523-1.022,2.284-1.544a7.551,7.551,0,0,0-.205,1.639,3.8,3.8,0,0,0,.757,2.457,2.757,2.757,0,0,0,2.33,1.071,5.15,5.15,0,0,0,1.638-.252q.756-.25,1.638-.63c-.294.463-.515.8-.662,1.008s-.283.409-.409.6-.263.388-.41.6-.346.524-.6.945q-2.268,1.448-5.355,3.5a55.3,55.3,0,0,0-5.89,4.505,31.514,31.514,0,0,0-4.789,5.2,9.278,9.278,0,0,0-1.984,5.45,4.459,4.459,0,0,0,.662,2.8,2.151,2.151,0,0,0,1.638.819,4.773,4.773,0,0,0,2.173-.535,15.119,15.119,0,0,0,2.267-1.323,37.541,37.541,0,0,0,7.844-8.285q3.245-4.693,6.017-9.418l5.733-3.654q3.78-2.394,7.371-5.04c.76-.561,1.478-1.1,2.175-1.631a7.663,7.663,0,0,0,.439,2.828,4.6,4.6,0,0,0,1.544,2.079,4.55,4.55,0,0,0,2.835.819,11.2,11.2,0,0,0,3.968-.788,27.619,27.619,0,0,0,4.222-2.047q2.141-1.26,4.315-2.8c1.33-.944,2.61-1.879,3.852-2.8q1.146-.715,2.29-1.51,2.268-1.573,4.159-3.024t3.748-2.8q1.857-1.353,3.308-2.3a15.413,15.413,0,0,1,2.362-1.323q.912-.378.976.126a3.57,3.57,0,0,1-.567,1.984,12.009,12.009,0,0,1-1.732,2.268,29.014,29.014,0,0,1-2.457,2.3q-1.356,1.134-2.677,2.11t-2.426,1.7a18.623,18.623,0,0,1-1.733,1.04,13.24,13.24,0,0,0,.158,1.8,4.294,4.294,0,0,0,.472,1.607q1.89-.315,2.646-.5a3.56,3.56,0,0,1,1.26-.126q-1.638.945-3.59,2.3t-3.938,2.961q-1.984,1.606-3.875,3.276t-3.4,3.182q-.566.567-1.512,1.732t-1.889,2.583a22.17,22.17,0,0,0-1.639,2.9,8.591,8.591,0,0,0-.819,2.741,2.611,2.611,0,0,0,.6,2.079,3.56,3.56,0,0,0,2.614.882,10.564,10.564,0,0,0,3.844-1.512,40.188,40.188,0,0,0,4.756-3.308,65.326,65.326,0,0,0,9.544-9.45,42.26,42.26,0,0,0,3.528-4.977,12.822,12.822,0,0,0,1.764-4.315,21.035,21.035,0,0,0,5.1-2.331,41.247,41.247,0,0,0,4.094-2.961l-1.512-3.276A53.348,53.348,0,0,1,829.859,323.194Zm-30.492-6.8q.912-1.008,2.552-2.583v.063l.756-.63a5.572,5.572,0,0,1,.693-.5q1.448-.817,1.449-.63a3.224,3.224,0,0,1-1.008,1.827,21.012,21.012,0,0,1-2.206,2.016q-.944.693-1.921,1.323t-1.984,1.2A21.925,21.925,0,0,1,799.367,316.39Zm-81.615-1.2a2.015,2.015,0,0,0-1.26.5,4.5,4.5,0,0,0-1.1,1.354,9.267,9.267,0,0,0-1.1,4.442c0,.336.01.661.032.976s.052.641.094.977q-1.134,1.008-2.457,2.016a28.557,28.557,0,0,1-2.52,1.732,13.165,13.165,0,0,1-2.111,1.071q-.914.348-1.26.063t0-1.291a15.772,15.772,0,0,1,1.733-3.087,48.005,48.005,0,0,1,5.419-6.458,23.9,23.9,0,0,1,6.3-4.5q2.2-1.071,2.741-.725t-.346,2.426a20.83,20.83,0,0,1-1.828,2.772c-.085-.252-.189-.525-.315-.819v-.063A2.36,2.36,0,0,0,717.752,315.193Zm3.024,30.24q-.126.124-.661.787t-1.261,1.575q-.725.913-1.574,1.89t-1.545,1.733a8.6,8.6,0,0,1-1.165,1.1q-.471.347-.41-.031a8.391,8.391,0,0,1,.788-1.859,9.184,9.184,0,0,1,1.1-1.669,36.055,36.055,0,0,1,3.4-3.654q1.7-1.576,3.464-3.024Zm35.532-21.672V323.7q-1.072.883-2.08,1.732t-1.89,1.481a8.578,8.578,0,0,1-1.543.913q-.661.283-.914.032-.378-.567.284-1.922a21.454,21.454,0,0,1,1.638-2.772q.977-1.417,2.016-2.646t1.417-1.606a34.224,34.224,0,0,1,4.347-3.623,32.037,32.037,0,0,1,3.78-2.3H763.3a5.154,5.154,0,0,1,2.048-.662q.6.033.724.473t-.724,1.638a28.986,28.986,0,0,1-2.268,2.74q-1.419,1.545-3.213,3.308T756.308,323.761Zm9.355,20.1a2.838,2.838,0,0,0-.253.346c-.063.1-.146.231-.252.378s-.3.43-.6.851q-.126.124-.662.787t-1.26,1.575q-.722.913-1.575,1.89t-1.543,1.733a8.662,8.662,0,0,1-1.165,1.1q-.474.347-.409-.031a8.239,8.239,0,0,1,.787-1.859,9.187,9.187,0,0,1,1.1-1.669,26.555,26.555,0,0,1,2.9-3.056q1.575-1.418,3.527-2.929C765.968,343.437,765.767,343.732,765.663,343.858Zm9.922-18.081a21.988,21.988,0,0,1-2.426,1.764q-1.039.63-1.48.315-.378-.567.284-1.922a21.447,21.447,0,0,1,1.638-2.772q.975-1.417,2.015-2.646t1.418-1.606a45.047,45.047,0,0,1,3.905-3.276,32.637,32.637,0,0,1,4.222-2.646H785.1a5.177,5.177,0,0,1,2.11-.662c.442.022.662.179.662.473q0,.882-1.953,3.087-.567.567-1.733,1.764t-2.614,2.614q-1.45,1.418-3.024,2.9T775.585,325.777Zm43.059,9.355q-1.479,1.859-3.212,3.686t-3.56,3.528q-1.827,1.7-3.4,2.992a33.1,33.1,0,0,1-2.678,2.016q-1.1.723-1.418.662-.754-.127-.22-1.134a13.793,13.793,0,0,1,1.89-2.52q1.355-1.512,3.276-3.308t4.032-3.559q2.11-1.766,4.126-3.308t3.528-2.488A26.22,26.22,0,0,1,818.644,335.132Z" fill="#a26b25"/>
    <path id="Контур_3897" data-name="Контур 3897" d="M992.869,322.658q-1.7,1.167-3.37,2.237t-3.277,1.953a21.684,21.684,0,0,1-2.992,1.386v-.063a5.868,5.868,0,0,1-2.425.756,1.472,1.472,0,0,1-1.292-.536,2.1,2.1,0,0,1-.253-1.512,7.914,7.914,0,0,1,.757-2.3q1.638-.819,3.623-1.953t3.874-2.363q1.89-1.229,3.5-2.488a14.5,14.5,0,0,0,2.488-2.394,4.426,4.426,0,0,0,1.071-2.426,3.957,3.957,0,0,0-.441-2.331,4.062,4.062,0,0,0-1.669-1.638,3.834,3.834,0,0,0-2.552-.346,10.548,10.548,0,0,0-4.63,2.205,26.442,26.442,0,0,0-4.1,4.032,34.058,34.058,0,0,0-3.244,4.693c-.373.653-.694,1.26-.985,1.84-.971.66-1.914,1.3-2.795,1.909q-2.016,1.386-3.559,2.425t-2.488,1.67a8.691,8.691,0,0,1-1.135.693,11.611,11.611,0,0,1,1.481-3.434q1.1-1.8,2.426-3.591t2.645-3.528a21.239,21.239,0,0,0,2.142-3.37,6.079,6.079,0,0,0,.505-2.2,2.284,2.284,0,0,0-.662-1.827,2.569,2.569,0,0,0-1.732-.567,6.308,6.308,0,0,0-3.119.913,21.487,21.487,0,0,0-3.15,2.205q-1.545,1.293-2.9,2.646l-2.237,2.237-1.637,1.575q.881-1.26,1.669-2.457t1.48-2.457a7.825,7.825,0,0,0,.568-2.394,2.158,2.158,0,0,0-.631-1.733,2.6,2.6,0,0,0-1.543-.6,4.793,4.793,0,0,0-1.859.252,8.033,8.033,0,0,0-1.575.693q-1.134.756-2.645,1.984t-3.182,2.678q-1.669,1.449-3.371,3.024t-3.213,3.024q1.386-2.457,2.458-4.631t2.141-4.252a8.579,8.579,0,0,0,.6-1.166,10.336,10.336,0,0,0,.472-1.354,1.7,1.7,0,0,0-.158-1.638,1.737,1.737,0,0,0-1.416-.567,3.248,3.248,0,0,0-1.575.5,8.612,8.612,0,0,0-2.143,2.079v-.063q-1.953,2.205-4.945,5.26a56.284,56.284,0,0,1-6.479,5.536c-1.256.851-2.458,1.67-3.57,2.434q-2.015,1.386-3.559,2.425t-2.489,1.67a8.493,8.493,0,0,1-1.134.693,11.662,11.662,0,0,1,1.481-3.434q1.1-1.8,2.426-3.591t2.646-3.528a21.225,21.225,0,0,0,2.141-3.37,6.058,6.058,0,0,0,.505-2.2,2.287,2.287,0,0,0-.661-1.827,2.572,2.572,0,0,0-1.733-.567,6.308,6.308,0,0,0-3.119.913,21.539,21.539,0,0,0-3.15,2.205q-1.544,1.293-2.9,2.646l-2.237,2.237-1.637,1.575q.882-1.26,1.67-2.457t1.479-2.457a7.8,7.8,0,0,0,.568-2.394,2.158,2.158,0,0,0-.631-1.733,2.6,2.6,0,0,0-1.542-.6,4.788,4.788,0,0,0-1.859.252,8.007,8.007,0,0,0-1.575.693q-1.135.756-2.646,1.984t-3.182,2.678q-1.669,1.449-3.37,3.024t-3.214,3.024q1.386-2.457,2.458-4.631T908.7,312.3a8.587,8.587,0,0,0,.6-1.166,10.186,10.186,0,0,0,.472-1.354,1.7,1.7,0,0,0-.157-1.638,1.739,1.739,0,0,0-1.417-.567,3.252,3.252,0,0,0-1.575.5,8.594,8.594,0,0,0-2.142,2.079v-.063q-1.953,2.205-4.945,5.26a53.785,53.785,0,0,1-5.687,4.938l-1.968,1.331q-.883.63-2.016,1.48a18.768,18.768,0,0,1-2.583,1.607c-.546.336-.883.388-1.008.157a2.04,2.04,0,0,1-.126-1.1q1.006-1.008,2.268-2.457a33.974,33.974,0,0,0,2.363-3.056,19.558,19.558,0,0,0,1.826-3.276,7.865,7.865,0,0,0,.725-3.118,3.314,3.314,0,0,0-.567-1.985,3.415,3.415,0,0,0-1.954-1.165,7.165,7.165,0,0,0-3.275,0,16.27,16.27,0,0,0-3.78,1.323,27.129,27.129,0,0,0-3.938,2.362,37.858,37.858,0,0,0-3.749,3.056,36.387,36.387,0,0,0-3.086,3.37c-.615.762-1.16,1.519-1.673,2.272-1.544,1.036-3.1,2.043-4.69,2.989a56.041,56.041,0,0,1-6.488,3.339h.063q-4.6,1.638-4.473.567a9.879,9.879,0,0,1,1.259-4.284,26.036,26.036,0,0,1,2.836-4.284,31.711,31.711,0,0,1,3.307-3.528,13.418,13.418,0,0,1,2.677-2.016l-.314.315a1.662,1.662,0,0,0-.316.441l-1.133,1.638q.376,0,1.259-.032c.589-.021.966-.031,1.134-.031a2.921,2.921,0,0,1,.568-.063h.63q.438,0,1.2-.945a11.262,11.262,0,0,0,1.354-2.2,9.977,9.977,0,0,0,.82-2.457,1.651,1.651,0,0,0-.41-1.7,3.9,3.9,0,0,0-2.835-.1,14.683,14.683,0,0,0-3.591,1.607,28.56,28.56,0,0,0-3.812,2.772,36.944,36.944,0,0,0-3.559,3.465,26.442,26.442,0,0,0-2.93,4.063,20.323,20.323,0,0,0-1.733,3.623l.063-.063a16.869,16.869,0,0,0-.692,2.74,7.5,7.5,0,0,0,0,2.741,3.758,3.758,0,0,0,1.133,2.079,3.871,3.871,0,0,0,2.71.819,16.078,16.078,0,0,0,6.426-1.827,65.344,65.344,0,0,0,6.6-3.477,7.373,7.373,0,0,0-.178,1.524,3.785,3.785,0,0,0,.976,2.646,3.221,3.221,0,0,0,2.489,1.071,7.2,7.2,0,0,0,2.489-.5,21.215,21.215,0,0,0,2.74-1.26,28.524,28.524,0,0,0,2.772-1.733q1.386-.977,2.52-1.921a4.96,4.96,0,0,0,1.355,1.669,2.973,2.973,0,0,0,1.859.6,4.331,4.331,0,0,0,2.015-.567,24.518,24.518,0,0,0,2.929-1.67c.784-.517,1.477-1,2.09-1.45l.02.1q3.276-2.394,5.009-3.717t2.741-2.2l-1.386,2.457q-1.2,2.142-2.426,4.5t-2.236,4.505a1.962,1.962,0,0,0,.882,1.732,1.644,1.644,0,0,0,1.763.158q5.1-4.221,9.545-8.631t9.1-8.442q-2.144,3.213-4.159,6.394t-4.347,6.206a2.465,2.465,0,0,0-.409,1.606,2.545,2.545,0,0,0,.567,1.355,2.079,2.079,0,0,0,1.165.724,1.788,1.788,0,0,0,1.387-.283v.063q.188-.126,1.7-1.481l3.875-3.465q2.363-2.109,5.355-4.819t6.206-5.607q-1.136,1.449-2.4,3.181a40.43,40.43,0,0,0-2.33,3.591,21.673,21.673,0,0,0-1.7,3.654,7.266,7.266,0,0,0-.442,3.308,3.049,3.049,0,0,0,1.8,1.7,3.654,3.654,0,0,0,2.174.189,14.453,14.453,0,0,0,2.52-1.166q1.384-.786,2.8-1.732t2.8-1.922q1.384-.975,2.519-1.8c.072-.054.156-.114.23-.169l.022.106q3.276-2.394,5.009-3.717t2.741-2.2l-1.387,2.457q-1.2,2.142-2.426,4.5t-2.236,4.505a1.962,1.962,0,0,0,.883,1.732,1.643,1.643,0,0,0,1.763.158q5.1-4.221,9.545-8.631t9.1-8.442q-2.144,3.213-4.159,6.394t-4.347,6.206a2.472,2.472,0,0,0-.41,1.606,2.538,2.538,0,0,0,.568,1.355,2.078,2.078,0,0,0,1.166.724,1.787,1.787,0,0,0,1.386-.283v.063q.188-.126,1.7-1.481l3.875-3.465q2.361-2.109,5.355-4.819t6.2-5.607q-1.134,1.449-2.394,3.181a40.66,40.66,0,0,0-2.331,3.591,21.745,21.745,0,0,0-1.7,3.654,7.262,7.262,0,0,0-.44,3.308,3.041,3.041,0,0,0,1.795,1.7,3.65,3.65,0,0,0,2.173.189,14.384,14.384,0,0,0,2.52-1.166q1.385-.786,2.8-1.732t2.8-1.922c.364-.256.7-.5,1.042-.738l0,.045a7.692,7.692,0,0,0,.442,2.867,4.6,4.6,0,0,0,1.543,2.079,4.55,4.55,0,0,0,2.835.819,11.212,11.212,0,0,0,3.97-.788,27.645,27.645,0,0,0,4.22-2.047q2.142-1.26,4.315-2.8t4.189-3.055l-.818-3.654Q994.57,321.493,992.869,322.658Zm-7.717-6.268q.912-1.008,2.551-2.583v.063l.756-.63a5.567,5.567,0,0,1,.693-.5q1.449-.817,1.449-.63a3.221,3.221,0,0,1-1.009,1.827,20.871,20.871,0,0,1-2.2,2.016q-.945.693-1.922,1.323t-1.984,1.2A21.784,21.784,0,0,1,985.152,316.39Zm-101.02-1.2a2.015,2.015,0,0,0-1.26.5,4.5,4.5,0,0,0-1.1,1.354,9.265,9.265,0,0,0-1.1,4.442c0,.336.009.661.032.976s.051.641.094.977q-1.134,1.008-2.457,2.016a28.711,28.711,0,0,1-2.52,1.732,13.165,13.165,0,0,1-2.111,1.071q-.914.348-1.26.063t0-1.291a15.772,15.772,0,0,1,1.733-3.087c.258-.365.521-.711.783-1.063l.1-.071-.023-.033a46.86,46.86,0,0,1,4.558-5.291,23.918,23.918,0,0,1,6.3-4.5q2.2-1.071,2.741-.725t-.346,2.426a20.83,20.83,0,0,1-1.828,2.772c-.085-.252-.189-.525-.315-.819v-.063A2.36,2.36,0,0,0,884.132,315.193Z" fill="#a26b25"/>
    <path id="Контур_3898" data-name="Контур 3898" d="M1106.835,323.635h.063l-1.26.819a4.185,4.185,0,0,0-.6-1.638,14.168,14.168,0,0,0-1.039-1.449,11.1,11.1,0,0,1-1.512-2.016,4.543,4.543,0,0,1-.505-1.2,1.032,1.032,0,0,1,.158-.788,11.493,11.493,0,0,1,.85-.913q.693-.567,1.607-1.481t1.984-2.173h-.062a10.606,10.606,0,0,0,1.606-2.111,5.632,5.632,0,0,0,.661-1.764,3.039,3.039,0,0,0-.031-1.323,1.2,1.2,0,0,0-.472-.724h.063a1.387,1.387,0,0,0-1.26-.284,5,5,0,0,0-1.545.63,12.279,12.279,0,0,0-1.574,1.134q-.789.662-1.354,1.229a32.346,32.346,0,0,0-2.521,2.961q-1.134,1.512-2.393,2.961-1.074,1.072-1.858,1.827t-1.608,1.48q-.819.726-1.889,1.575l-.179.142c-.509.366-1.2.853-2.09,1.465q-1.827,1.26-3.716,2.52t-3.4,2.2a11.51,11.51,0,0,1-1.638.945,7.8,7.8,0,0,1,1.448-3.213q1.26-1.827,2.835-3.969,1.2-1.638,2.332-3.276a28.7,28.7,0,0,0,1.826-2.961,4.11,4.11,0,0,0,.82-2.709,2.054,2.054,0,0,0-1.071-1.544,4.01,4.01,0,0,0-2.2-.378,5.381,5.381,0,0,0-2.52.851V310.4a30.607,30.607,0,0,0-2.583,1.921q-1.514,1.229-3.213,2.741t-3.465,3.15q-1.764,1.638-3.277,3.087.758-1.512,1.355-2.709t1.134-2.237q.536-1.039,1.071-2.016t1.166-2.047a6.027,6.027,0,0,0,.945-3.024,1.872,1.872,0,0,0-.725-1.607,1.919,1.919,0,0,0-1.733,0,4.988,4.988,0,0,0-2.078,1.733q-2.4,2.709-5.512,5.89a53.841,53.841,0,0,1-5.512,4.822v0q-.906.678-1.686,1.266c-.256.186-.509.373-.772.561l0,.017-.6.455q-1.293.978-2.426,1.764t-2.331,1.512q-1.2.725-2.835,1.67h.063q-1.2.189-.693-.756a14.889,14.889,0,0,1,1.922-2.552q1.418-1.607,3.37-3.685a54.951,54.951,0,0,0,3.591-4.221,9.681,9.681,0,0,0,.913-1.355,8.09,8.09,0,0,0,.82-1.921,4.459,4.459,0,0,0,.126-1.953,2.125,2.125,0,0,0-1.166-1.512,5.669,5.669,0,0,0-3.15-.819,13.574,13.574,0,0,0-6.457,1.921,31.605,31.605,0,0,0-6.647,4.946,36.278,36.278,0,0,0-3.087,3.37q-.735.91-1.371,1.813l-9.969,6.724h.063c-.294.211-.431.189-.409-.063a2.035,2.035,0,0,1,.346-.882,35.864,35.864,0,0,1,2.205-4q1.26-1.984,2.521-3.811l1.322-2.079v.063q2.331-3.4,4.63-6.867t4.631-6.993q1.134-1.827,2.961-4.41t3.623-5.261q1.8-2.676,3.244-5.1a16.222,16.222,0,0,0,1.827-3.874q-.063-1.134-.85-1.1a4.115,4.115,0,0,0-1.765.567,12.138,12.138,0,0,0-1.89,1.292q-.914.756-1.291,1.134-3.591,4.41-6.709,9.072t-5.766,9.45q-.63,1.134-1.228,2.236t-1.29,2.174a8.7,8.7,0,0,0-4.222-.1,16.519,16.519,0,0,0-4.126,1.512,23.057,23.057,0,0,0-3.717,2.426q-1.735,1.386-3.119,2.709a36.252,36.252,0,0,0-3.087,3.37,32.772,32.772,0,0,0-2.52,3.56,18.91,18.91,0,0,0-1.669,3.433,8.967,8.967,0,0,0-.6,2.993,4.154,4.154,0,0,0,.756,2.457,2.518,2.518,0,0,0,1.008.787,3.186,3.186,0,0,0,1.323.284,5.766,5.766,0,0,0,1.827-.315,12.936,12.936,0,0,0,1.859-.788q.912-.473,1.637-.945a11.958,11.958,0,0,0,1.1-.787q.694-.5,1.419-1.1t1.479-1.291a18.832,18.832,0,0,0-.377,2.173,4.494,4.494,0,0,0,.126,1.89,1.6,1.6,0,0,0,1.008,1.071,3.657,3.657,0,0,0,2.331-.283,15.462,15.462,0,0,0,2.678-1.26q1.544-.882,3.15-1.922c.791-.512,1.547-1.036,2.3-1.56a7.448,7.448,0,0,0-.194,1.592,4.155,4.155,0,0,0,.756,2.457,2.87,2.87,0,0,0,2.331,1.071,5.766,5.766,0,0,0,1.827-.315,12.872,12.872,0,0,0,1.858-.788q.914-.473,1.638-.945a12.145,12.145,0,0,0,1.1-.787l.882-.693c-.043.252-.073.483-.094.693a5.494,5.494,0,0,0-.032.567,2.426,2.426,0,0,0,.788,2.016q.786.629,2.8-.126a16.833,16.833,0,0,0,2.615-1.26q1.542-.882,3.244-1.985t3.4-2.3c.366-.257.7-.5,1.046-.742l.024.112q3.214-2.33,4.946-3.654t2.741-2.142l-1.449,2.583q-1.262,2.205-2.489,4.5t-2.11,4.253a1.942,1.942,0,0,0,.913,1.732,1.7,1.7,0,0,0,1.795.158q2.583-2.016,5.482-4.757t5.859-5.575q1.89-1.7,3.748-3.528t3.56-3.276l-.441.63q-1.072,1.451-2.363,3.213a37.311,37.311,0,0,0-2.331,3.591,22.764,22.764,0,0,0-1.67,3.591,6.908,6.908,0,0,0-.44,3.213l.063.126a2.83,2.83,0,0,0,1.763,1.7,3.768,3.768,0,0,0,2.206.189,15,15,0,0,0,2.394-1.134q1.323-.756,2.741-1.7t2.8-1.953q1.386-1.008,2.521-1.827l.161-.117.028.054q2.015-1.386,3.086-2.142c.715-.5,1.364-1.008,1.953-1.512l2.143-1.89-.063.063a15.439,15.439,0,0,0,1.669,2.488,7.8,7.8,0,0,1,1.418,2.489,2.076,2.076,0,0,1-.189,1.638,3.3,3.3,0,0,1-1.229,1.291,3.034,3.034,0,0,1-1.7.441,1.846,1.846,0,0,1-1.479-.787,3.549,3.549,0,0,0-1.26-1.008,4.255,4.255,0,0,0-1.355-.378,2.766,2.766,0,0,0-1.2.126,2.1,2.1,0,0,0-.789.441,2.032,2.032,0,0,0-.535,1.386,3.591,3.591,0,0,0,.315,1.323,3.9,3.9,0,0,0,.693,1.071,5.434,5.434,0,0,0,.662.63,7.593,7.593,0,0,0,3.968,1.134,8.978,8.978,0,0,0,3.623-.851,27.7,27.7,0,0,0,3.78-2.047q1.859-1.2,3.528-2.489t2.929-2.173l1.512-1.071-.378-4.032Zm-78.34-4.473q-1.167,1.2-2.551,2.488t-2.773,2.552q-1.388,1.26-2.583,2.205a11,11,0,0,1-2.079,1.354q-.883.411-1.2.1-.5-.5.126-1.827a18.286,18.286,0,0,1,1.67-2.772q1.04-1.449,2.11-2.709t1.449-1.638a44.764,44.764,0,0,1,3.906-3.276,32.562,32.562,0,0,1,4.221-2.646h-.063q2.771-1.323,2.772-.126l-3.024,4.284Q1029.66,317.965,1028.495,319.162Zm18.679,4.6V323.7q-1.072.883-2.079,1.732t-1.89,1.481a8.612,8.612,0,0,1-1.543.913c-.441.189-.747.2-.914.032q-.377-.567.284-1.922a21.561,21.561,0,0,1,1.638-2.772,33.094,33.094,0,0,1,2.016-2.646q1.039-1.229,1.417-1.606a34.223,34.223,0,0,1,4.347-3.623,32.2,32.2,0,0,1,3.78-2.3h-.063a5.159,5.159,0,0,1,2.048-.662.7.7,0,0,1,.724.473q.126.441-.724,1.638a28.993,28.993,0,0,1-2.268,2.74q-1.418,1.545-3.214,3.308T1047.174,323.761Z" fill="#a26b25"/>
    <path id="Контур_3899" data-name="Контур 3899" d="M1164.1,324.013l-.819-3.654q-1.512,1.134-3.212,2.3t-3.371,2.237q-1.67,1.071-3.276,1.953a21.752,21.752,0,0,1-2.993,1.386v-.063a5.86,5.86,0,0,1-2.425.756,1.47,1.47,0,0,1-1.291-.536,2.1,2.1,0,0,1-.253-1.512,7.882,7.882,0,0,1,.756-2.3q1.638-.819,3.623-1.953t3.874-2.363q1.89-1.229,3.5-2.488a14.457,14.457,0,0,0,2.488-2.394,4.419,4.419,0,0,0,1.071-2.426,3.964,3.964,0,0,0-.44-2.331,4.07,4.07,0,0,0-1.67-1.638,3.83,3.83,0,0,0-2.551-.346,10.552,10.552,0,0,0-4.631,2.205,26.49,26.49,0,0,0-4.1,4.032,34.142,34.142,0,0,0-3.243,4.693c-.384.671-.713,1.294-1.009,1.889l-.346.253q-1.416,1.039-2.929,2.111t-2.93,1.984q-1.416.915-2.173,1.355-2.836,1.953-2.834,1.008a5.065,5.065,0,0,1,.251-1.355,15.863,15.863,0,0,1,.692-1.858,72.49,72.49,0,0,1,3.467-6.584q1.888-3.18,3.841-6.2a53.786,53.786,0,0,1,2.994-4.505q1.6-2.174,3.181-4.378.756-1.071,1.89-2.615t2.426-3.339q1.29-1.8,2.614-3.685t2.426-3.686q1.1-1.8,1.921-3.307a15,15,0,0,0,1.134-2.52q0-1.134-1.418-1.071a5.006,5.006,0,0,0-2.929,1.323,22.874,22.874,0,0,0-3.024,3.339q-1.7,2.207-3.591,5.04t-3.843,6.079q-1.954,3.246-3.843,6.4l-3.591,5.985q-1.7,2.835-3.086,4.851-.569.945-1.512,2.583t-1.891,3.559a32.058,32.058,0,0,0-1.606,3.875,10.845,10.845,0,0,0-.662,3.4q0,1.953,1.008,2.551a3.676,3.676,0,0,0,2.426.41,10.318,10.318,0,0,0,2.834-.819,17.462,17.462,0,0,0,2.3-1.2h.062l1.575-1.071q1.768-1.22,3.626-2.5c0,.025,0,.049,0,.073a7.692,7.692,0,0,0,.441,2.867,4.6,4.6,0,0,0,1.543,2.079,4.552,4.552,0,0,0,2.835.819,11.212,11.212,0,0,0,3.97-.788,27.651,27.651,0,0,0,4.221-2.047q2.141-1.26,4.314-2.8T1164.1,324.013Zm-11.749-7.623q.914-1.008,2.551-2.583v.063l.757-.63a5.573,5.573,0,0,1,.692-.5q1.449-.817,1.449-.63a3.218,3.218,0,0,1-1.008,1.827,21,21,0,0,1-2.2,2.016q-.944.693-1.922,1.323t-1.984,1.2A22.092,22.092,0,0,1,1152.35,316.39Z" fill="#a26b25"/>
    <path id="Контур_3900" data-name="Контур 3900" d="M1279.071,320.359q-1.514,1.134-3.213,2.3t-3.371,2.237q-1.67,1.071-3.276,1.953a21.7,21.7,0,0,1-2.993,1.386v-.063a5.86,5.86,0,0,1-2.425.756,1.47,1.47,0,0,1-1.291-.536,2.1,2.1,0,0,1-.252-1.512,7.873,7.873,0,0,1,.755-2.3q1.638-.819,3.623-1.953t3.874-2.363q1.891-1.229,3.5-2.488a14.426,14.426,0,0,0,2.488-2.394,4.421,4.421,0,0,0,1.072-2.426,3.965,3.965,0,0,0-.441-2.331,4.058,4.058,0,0,0-1.67-1.638,3.83,3.83,0,0,0-2.551-.346,10.557,10.557,0,0,0-4.631,2.205,26.49,26.49,0,0,0-4.1,4.032,34.131,34.131,0,0,0-3.243,4.693c-.423.741-.787,1.429-1.1,2.077l-2.8,1.987h.063l-1.26.819a4.168,4.168,0,0,0-.6-1.638,13.884,13.884,0,0,0-1.04-1.449,11.2,11.2,0,0,1-1.512-2.016,4.533,4.533,0,0,1-.5-1.2,1.032,1.032,0,0,1,.158-.788,11.561,11.561,0,0,1,.851-.913q.692-.567,1.605-1.481t1.985-2.173h-.063a10.577,10.577,0,0,0,1.607-2.111,5.64,5.64,0,0,0,.662-1.764,3.051,3.051,0,0,0-.033-1.323,1.19,1.19,0,0,0-.471-.724h.062a1.385,1.385,0,0,0-1.26-.284,4.982,4.982,0,0,0-1.543.63,12.219,12.219,0,0,0-1.575,1.134c-.526.441-.976.851-1.355,1.229a32.319,32.319,0,0,0-2.519,2.961q-1.135,1.512-2.4,2.961-1.071,1.072-1.858,1.827t-1.606,1.48q-.82.726-1.891,1.575c-.425.337-.933.737-1.506,1.185l-2.9,2.06h.063l-1.26.819a4.174,4.174,0,0,0-.6-1.638,13.876,13.876,0,0,0-1.039-1.449,11.244,11.244,0,0,1-1.512-2.016,4.565,4.565,0,0,1-.5-1.2,1.032,1.032,0,0,1,.157-.788,11.742,11.742,0,0,1,.851-.913q.693-.567,1.607-1.481t1.985-2.173h-.063a10.634,10.634,0,0,0,1.6-2.111,5.612,5.612,0,0,0,.662-1.764,3.052,3.052,0,0,0-.031-1.323,1.2,1.2,0,0,0-.473-.724h.063a1.386,1.386,0,0,0-1.26-.284,4.989,4.989,0,0,0-1.543.63,12.153,12.153,0,0,0-1.575,1.134c-.527.441-.977.851-1.355,1.229a32.506,32.506,0,0,0-2.52,2.961q-1.134,1.512-2.393,2.961-1.074,1.072-1.859,1.827t-1.607,1.48c-.476.422-1.028.88-1.631,1.364l-.006-.072q-1.764,1.323-3.056,2.3t-2.425,1.764q-1.136.789-2.332,1.512t-2.835,1.67h.063q-1.2.189-.692-.756a14.911,14.911,0,0,1,1.921-2.552q1.417-1.607,3.37-3.685a55.186,55.186,0,0,0,3.592-4.221,9.68,9.68,0,0,0,.913-1.355,8.214,8.214,0,0,0,.819-1.921,4.444,4.444,0,0,0,.126-1.953,2.125,2.125,0,0,0-1.166-1.512,5.665,5.665,0,0,0-3.15-.819,13.576,13.576,0,0,0-6.457,1.921,31.631,31.631,0,0,0-6.647,4.946,36.26,36.26,0,0,0-3.087,3.37c-.417.517-.8,1.032-1.17,1.545a12.222,12.222,0,0,1-2.2,1.605q-1.293.725-2.552,1.544.5-1.071.851-1.922a4.374,4.374,0,0,0,.283-1.921,8.851,8.851,0,0,0-1.2-4.41,10.115,10.115,0,0,0-2.96-3.15l5.669-8.568-4.976.378-4.347,6.489a15.125,15.125,0,0,0-2.237-.473,17.325,17.325,0,0,0-2.3-.157l-4.1,4.158q.945-.126,2.8-.189a15.678,15.678,0,0,1,3.5.252l-28.917,43.47h5.04q3.97-5.986,8.19-12.38t8.442-12.883q2.772-4.158,5.513-8.316t5.387-8.19a4.892,4.892,0,0,1,1.889,3.78,6.316,6.316,0,0,1-1.039,3.37A15.759,15.759,0,0,1,1189.8,326a20.071,20.071,0,0,1-3.4,2.583,19.332,19.332,0,0,1-3.4,1.67q.63,1.638.882,2.331t.505,1.638q1.2-.631,2.236-1.071t2.111-.945q1.51-.63,3.023-1.323t3.308-1.7c.971-.545,2.036-1.207,3.186-1.973a7.475,7.475,0,0,0-.194,1.6,4.16,4.16,0,0,0,.755,2.457,2.871,2.871,0,0,0,2.332,1.071,5.761,5.761,0,0,0,1.826-.315,13.03,13.03,0,0,0,1.859-.788q.912-.473,1.638-.945a12.246,12.246,0,0,0,1.1-.787l.883-.693c-.043.252-.074.483-.1.693s-.03.4-.03.567a2.429,2.429,0,0,0,.787,2.016q.786.629,2.8-.126a16.786,16.786,0,0,0,2.615-1.26q1.542-.882,3.244-1.985t3.4-2.3c.423-.3.815-.577,1.209-.856l.051.1q2.014-1.386,3.087-2.142t1.953-1.512l2.142-1.89-.063.063a15.449,15.449,0,0,0,1.67,2.488,7.811,7.811,0,0,1,1.417,2.489,2.068,2.068,0,0,1-.189,1.638,3.309,3.309,0,0,1-1.228,1.291,3.033,3.033,0,0,1-1.7.441,1.849,1.849,0,0,1-1.481-.787,3.523,3.523,0,0,0-1.26-1.008,4.249,4.249,0,0,0-1.354-.378,2.773,2.773,0,0,0-1.2.126,2.1,2.1,0,0,0-.788.441,2.027,2.027,0,0,0-.535,1.386,3.571,3.571,0,0,0,.314,1.323,3.9,3.9,0,0,0,.694,1.071,5.372,5.372,0,0,0,.662.63,7.593,7.593,0,0,0,3.967,1.134,8.973,8.973,0,0,0,3.623-.851,27.712,27.712,0,0,0,3.781-2.047q1.857-1.2,3.527-2.489c.8-.622,1.535-1.17,2.2-1.651,1.172-.807,2.1-1.449,2.748-1.908q1.07-.756,1.952-1.512l2.142-1.89-.063.063a15.505,15.505,0,0,0,1.67,2.488,7.818,7.818,0,0,1,1.418,2.489,2.064,2.064,0,0,1-.19,1.638,3.3,3.3,0,0,1-1.228,1.291,3.031,3.031,0,0,1-1.7.441,1.851,1.851,0,0,1-1.481-.787,3.529,3.529,0,0,0-1.259-1.008,4.261,4.261,0,0,0-1.356-.378,2.77,2.77,0,0,0-1.2.126,2.094,2.094,0,0,0-.788.441,2.036,2.036,0,0,0-.535,1.386,3.593,3.593,0,0,0,.315,1.323,3.9,3.9,0,0,0,.693,1.071,5.459,5.459,0,0,0,.661.63,7.6,7.6,0,0,0,3.97,1.134,8.98,8.98,0,0,0,3.622-.851,27.645,27.645,0,0,0,3.78-2.047q1.857-1.2,3.528-2.489h0a7.6,7.6,0,0,0,.439,2.742,4.329,4.329,0,0,0,4.377,2.9,11.2,11.2,0,0,0,3.97-.788,27.646,27.646,0,0,0,4.221-2.047q2.141-1.26,4.315-2.8t4.189-3.055Zm-10.931-3.969q.914-1.008,2.551-2.583v.063l.757-.63a5.637,5.637,0,0,1,.692-.5q1.449-.817,1.449-.63a3.212,3.212,0,0,1-1.008,1.827,20.888,20.888,0,0,1-2.205,2.016q-.944.693-1.921,1.323t-1.984,1.2A21.926,21.926,0,0,1,1268.14,316.39Zm-59.439,7.371V323.7q-1.071.883-2.079,1.732t-1.89,1.481a8.578,8.578,0,0,1-1.543.913q-.661.283-.914.032-.376-.567.283-1.922a21.7,21.7,0,0,1,1.639-2.772q.977-1.417,2.016-2.646t1.417-1.606a34.215,34.215,0,0,1,4.347-3.623,32.115,32.115,0,0,1,3.781-2.3h-.063a5.156,5.156,0,0,1,2.047-.662.7.7,0,0,1,.725.473q.125.441-.725,1.638a29.146,29.146,0,0,1-2.268,2.74q-1.417,1.545-3.213,3.308T1208.7,323.761Z" fill="#a26b25"/>
    <path id="Контур_3901" data-name="Контур 3901" d="M1287.039,325.146a3.976,3.976,0,1,0,3.717,3.969A3.676,3.676,0,0,0,1287.039,325.146Z" fill="#a26b25"/>
    <path id="Контур_3902" data-name="Контур 3902" d="M1300.079,325.146a3.976,3.976,0,1,0,3.718,3.969A3.677,3.677,0,0,0,1300.079,325.146Z" fill="#a26b25"/>
    <path id="Контур_3903" data-name="Контур 3903" d="M1313.12,325.146a3.976,3.976,0,1,0,3.717,3.969A3.677,3.677,0,0,0,1313.12,325.146Z" fill="#a26b25"/>
    <path id="Контур_3904" data-name="Контур 3904" d="M1277.365,305.058a1.741,1.741,0,0,0,2.462,0s3.994-3.844,6.606-6.456l-1.742-3.483c-2.612,2.612-7.326,7.476-7.326,7.476a1.74,1.74,0,0,0,0,2.463Z" fill="#a26b25"/>
  </g>
</svg>
