<svg xmlns="http://www.w3.org/2000/svg" width="159.5" height="103.483" viewBox="0 0 159.5 103.483">
  <g id="Сгруппировать_1343" data-name="Сгруппировать 1343" transform="translate(-100.015 -27.381)">
    <path id="Контур_8373" data-name="Контур 8373" d="M165.106,90.267c-1.74-.041-3.041-.088-7.3-.116a5.7,5.7,0,0,1-2.663-.39,4.3,4.3,0,0,1-2.154-2h-6.483a8.705,8.705,0,0,1-3.287-.387,4.32,4.32,0,0,1-2.237-2.006H135.6a12.506,12.506,0,0,1-4.456-.488,5.765,5.765,0,0,1-3.124-2.727h-5.657c-.239,0-.337.005-.436.007a7.346,7.346,0,0,1-1.647-.092h-.006A12.871,12.871,0,0,1,117,81.033,5.783,5.783,0,0,1,114.718,79h-5.473v0c-.239,0-.336,0-.438,0a7.333,7.333,0,0,1-1.646-.089h0a9.345,9.345,0,0,1-4.674-2.412,8.1,8.1,0,0,1-.686-.775,7.787,7.787,0,0,1-.59-.878l-.439-.762h.953c23.31,0,40.536.28,63.02.1-.159.307-.309.626-.449.948H102.746a7.157,7.157,0,0,0,.6.669A8.148,8.148,0,0,0,107.42,77.9h0a6.564,6.564,0,0,0,1.36.066c.205-.005.409-.008.463-.008H114.1l-.027-.047h49.288c-.089.36-.162.724-.227,1.087H116.118a4.783,4.783,0,0,0,1.456,1.129,11.982,11.982,0,0,0,2.962.927h0a6.53,6.53,0,0,0,1.357.064l.461-.006v0H162.9c-.014.256-.021.514-.021.778,0,.1,0,.191,0,.286h-33.52a4.492,4.492,0,0,0,2.2,1.735,11.481,11.481,0,0,0,4.008.413h.008l27.463-.066c.054.374.118.743.195,1.109h-20.92a3.033,3.033,0,0,0,1.349,1.043,7.656,7.656,0,0,0,2.812.307h17.1c.107.363.228.723.36,1.076h-9.665a3.159,3.159,0,0,0,1.394,1.042,4.8,4.8,0,0,0,2.109.275h.015l6.73.059c.179.371.371.739.576,1.1" fill="#fff" fill-rule="evenodd"/>
    <path id="Контур_8374" data-name="Контур 8374" d="M194.4,90.267c1.74-.041,3.038-.088,7.3-.116a5.7,5.7,0,0,0,2.663-.39,4.288,4.288,0,0,0,2.153-2H213a8.705,8.705,0,0,0,3.287-.387,4.319,4.319,0,0,0,2.239-2.006h5.387a12.5,12.5,0,0,0,4.455-.488,5.767,5.767,0,0,0,3.125-2.727h5.656c.237,0,.339.005.436.007a7.343,7.343,0,0,0,1.647-.092h.007a12.869,12.869,0,0,0,3.266-1.037A5.812,5.812,0,0,0,244.8,79h5.468v0c.239,0,.337,0,.437,0a7.32,7.32,0,0,0,1.646-.089h.005a9.344,9.344,0,0,0,4.671-2.412,7.927,7.927,0,0,0,1.277-1.653l.439-.762h-.953c-23.312,0-40.536.28-63.019.1.16.307.307.626.45.948h61.546a7.416,7.416,0,0,1-.592.669A8.179,8.179,0,0,1,252.09,77.9h0a6.581,6.581,0,0,1-1.361.066c-.207-.005-.41-.008-.463-.008H245.41l.03-.047H196.153c.084.36.161.724.225,1.087h47.014a4.8,4.8,0,0,1-1.454,1.129,12.028,12.028,0,0,1-2.966.927h0a6.589,6.589,0,0,1-1.362.064l-.459-.006v0H196.607c.013.256.018.514.018.778,0,.1,0,.191,0,.286h33.52a4.469,4.469,0,0,1-2.2,1.735,11.478,11.478,0,0,1-4.008.413h-.01l-27.462-.066q-.081.561-.194,1.109h20.919a3.042,3.042,0,0,1-1.346,1.043,7.672,7.672,0,0,1-2.813.307h-17.1c-.11.363-.231.723-.361,1.076h9.665a3.159,3.159,0,0,1-1.394,1.042,4.812,4.812,0,0,1-2.11.275h-.014l-6.733.059c-.179.371-.368.739-.573,1.1" fill="#fff" fill-rule="evenodd"/>
    <path id="Контур_8375" data-name="Контур 8375" d="M184.367,95.855l.035-.014a15.9,15.9,0,0,0,1.5-.594l.013-.007a14.3,14.3,0,0,0,1.406-.748l.019-.011a14.7,14.7,0,0,0-.3-25.359c-.2-.111-.393-.216-.6-.318l-.005,0h0c-.409-.21-.823-.4-1.253-.569l-.045-.02-.044-.016-.277-.1-.015,0-.265-.1-.076-.023-.018-.008-.094-.03-.094-.028,0,0-.275-.085h-.007l-.094-.029-.191-.055-.1-.025-.094-.025-.19-.05h0l-.1-.024-.1-.024-.171-.036-.023-.007-.1-.02a14.7,14.7,0,1,0-3.062,29.08c.467,0,.92-.024,1.375-.067a15.072,15.072,0,0,0,3.24-.672m3.158-2.971c-.316-.113-.635-.221-.948-.325a14.156,14.156,0,0,0,1.711-2.624,15.862,15.862,0,0,0,.666-1.518q1.124.213,2.255.479a13.665,13.665,0,0,1-3.684,3.988m4.19-4.9q-1.223-.294-2.44-.525a16.839,16.839,0,0,0,.691-4.767c0-.114,0-.226,0-.338h3.2a13.512,13.512,0,0,1-1.453,5.63m1.455-6.626h-3.246a18.732,18.732,0,0,0-.855-4.427c.98-.185,1.958-.4,2.94-.637a13.6,13.6,0,0,1,1.161,5.064m-1.615-5.987q-1.413.34-2.823.6c-.089-.223-.175-.444-.269-.661a17.641,17.641,0,0,0-1.985-3.492q.827-.261,1.649-.582a12.986,12.986,0,0,1,1.067.963,13.637,13.637,0,0,1,2.361,3.168m-4.4-4.847q-.672.244-1.343.449a15.8,15.8,0,0,0-2.136-2.113,13.434,13.434,0,0,1,3.479,1.664m-11.21-1.717a15.6,15.6,0,0,0-2.129,2.077q-.669-.215-1.341-.481a13.551,13.551,0,0,1,3.47-1.6M171.5,71.1q.824.347,1.648.623a17.58,17.58,0,0,0-2.054,3.588c-.1.223-.188.45-.276.68q-1.46-.273-2.913-.634a13.539,13.539,0,0,1,3.6-4.257m-4.053,5.179q1.52.383,3.034.67a18.652,18.652,0,0,0-.849,4.406h-3.352a13.588,13.588,0,0,1,1.167-5.076m-1.166,6.072h3.309c0,.112,0,.224,0,.338a16.8,16.8,0,0,0,.688,4.746c-.846.164-1.691.347-2.537.559a13.579,13.579,0,0,1-1.458-5.643m1.966,6.555c.784-.194,1.566-.361,2.35-.512a14.46,14.46,0,0,0,2.462,4.258c-.323.111-.641.229-.962.349a13.494,13.494,0,0,1-1.842-1.541,13.7,13.7,0,0,1-2.008-2.554m4.93,4.775c.206-.078.418-.144.625-.212a14.8,14.8,0,0,0,1.168,1.055,13.845,13.845,0,0,1-1.793-.843m11.511.762a13.868,13.868,0,0,0,1.15-1.061c.2.063.411.128.614.2a13.4,13.4,0,0,1-1.764.863m-6.4-26.008a31.989,31.989,0,0,0-1.683,3.138c-.557-.1-1.113-.217-1.667-.366a14.246,14.246,0,0,1,3.35-2.772m-4.059,3.625c.654.183,1.306.336,1.96.455a25.537,25.537,0,0,0-1.33,4.059q-1.476-.15-2.947-.389c.064-.174.135-.347.208-.517a16.663,16.663,0,0,1,2.109-3.608m-2.664,5.083q1.544.255,3.082.413a22.616,22.616,0,0,0-.4,3.8h-3.515a17.89,17.89,0,0,1,.829-4.212m-.873,5.208h3.562a22.769,22.769,0,0,0,.549,4.423q-1.725.171-3.445.462a15.885,15.885,0,0,1-.669-4.547c0-.114,0-.226,0-.338m1,5.85c1.118-.193,2.237-.338,3.356-.446a26.634,26.634,0,0,0,1.436,4.025,21.8,21.8,0,0,0-2.319.525,13.033,13.033,0,0,1-1.892-2.786,13.686,13.686,0,0,1-.581-1.318m3.275,4.929c.651-.169,1.3-.3,1.955-.408.422.871.9,1.737,1.419,2.605l-.3-.034a13.367,13.367,0,0,1-3.078-2.163M179.211,69q-.008,1.424-.016,2.845-.732-.028-1.46-.112A31.012,31.012,0,0,1,179.211,69m-1.9,3.688c.628.081,1.254.131,1.883.155q-.007,1.984-.015,3.97-1.6-.018-3.205-.142a24.637,24.637,0,0,1,1.337-3.983m-1.552,4.968q1.709.138,3.42.153,0,1.775,0,3.546h-3.815a21.869,21.869,0,0,1,.4-3.7m-.394,4.695h3.811q0,2.1,0,4.182c-1.088.015-2.176.06-3.266.142a22.254,22.254,0,0,1-.548-4.324m.8,5.309q1.511-.113,3.02-.126.006,1.984.017,3.967c-.531.021-1.063.061-1.591.12a26.071,26.071,0,0,1-1.446-3.961m1.9,4.918c.38-.036.76-.064,1.141-.078,0,.729.007,1.454.012,2.183-.418-.7-.8-1.4-1.153-2.1m2.26-23.621a31.5,31.5,0,0,1,1.514,2.808c-.508.048-1.021.08-1.532.088,0-.966.01-1.929.018-2.9m-.026,3.9c.659-.014,1.314-.056,1.973-.13a25.428,25.428,0,0,1,1.318,3.934c-1.1.088-2.2.14-3.3.153q0-1.977.008-3.957m-.013,4.956q1.758-.022,3.519-.168a21.74,21.74,0,0,1,.4,3.714h-3.919q0-1.77,0-3.546m0,4.542h3.914a21.914,21.914,0,0,1-.553,4.341q-1.679-.133-3.358-.156c0-1.4,0-2.788,0-4.185m.007,5.183c1.035.014,2.071.062,3.107.138a26.076,26.076,0,0,1-1.426,3.918c-.556-.053-1.112-.087-1.668-.1q-.011-1.977-.013-3.959M180.3,92.5q.6.01,1.206.062c-.36.721-.76,1.447-1.19,2.171-.006-.742-.01-1.49-.016-2.233m.964-24.057a14.356,14.356,0,0,1,3.41,2.841c-.569.138-1.14.252-1.708.341a31.683,31.683,0,0,0-1.7-3.182m2.119,4.13c.667-.111,1.331-.254,2-.429a16.736,16.736,0,0,1,2.048,3.532c.07.165.138.33.2.5-.978.16-1.961.29-2.943.391a25.384,25.384,0,0,0-1.3-3.989m1.517,4.973q1.533-.164,3.077-.418a17.72,17.72,0,0,1,.836,4.235H185.3a22.76,22.76,0,0,0-.4-3.817m.4,4.813h3.561v.338a15.841,15.841,0,0,1-.671,4.571q-1.721-.294-3.444-.469a22.94,22.94,0,0,0,.554-4.44m-.795,5.421q1.674.168,3.355.445a14.134,14.134,0,0,1-.579,1.3,12.92,12.92,0,0,1-1.824,2.71,21.82,21.82,0,0,0-2.363-.5,26.9,26.9,0,0,0,1.411-3.962m-1.849,4.906q1,.147,2,.386a13.24,13.24,0,0,1-3.109,2.207c-.11.016-.218.03-.329.042q.794-1.315,1.434-2.635" fill="#fff" fill-rule="evenodd"/>
    <path id="Контур_8376" data-name="Контур 8376" d="M197.619,92.738a20.9,20.9,0,0,1-35.728,0h5.117a16.729,16.729,0,0,0,25.492,0Z" fill="#fff" fill-rule="evenodd"/>
    <path id="Контур_8377" data-name="Контур 8377" d="M179.753,61A20.887,20.887,0,0,1,198.1,71.888h-4.926a16.742,16.742,0,0,0-26.844,0H161.4A20.891,20.891,0,0,1,179.753,61" fill="#fff" fill-rule="evenodd"/>
    <path id="Контур_8378" data-name="Контур 8378" d="M203.611,92.738a26.209,26.209,0,0,1-47.714,0h2.81a23.678,23.678,0,0,0,42.1,0Z" fill="#fff" fill-rule="evenodd"/>
    <path id="Контур_8379" data-name="Контур 8379" d="M179.753,55.691a26.208,26.208,0,0,1,24.223,16.2h-2.76a23.682,23.682,0,0,0-42.922,0h-2.763a26.213,26.213,0,0,1,24.222-16.2" fill="#fff" fill-rule="evenodd"/>
    <path id="Контур_8380" data-name="Контур 8380" d="M236.429,49.941a1.991,1.991,0,0,0,1,.566,5.848,5.848,0,0,0,2.686-.361,3.63,3.63,0,0,1,.212-1.372,5.077,5.077,0,0,1,1.1-1.711c.107-.113.22-.229.343-.347-.395.091-.76.175-1.1.262a12.177,12.177,0,0,0-2.03.687,3.629,3.629,0,0,0-1.321.928q-.648.956-.893,1.348m-8.485-7.554c.253-.16.506-.329.761-.51q1.074-.745,3.164-2.315,2-1.506,3.193-2.54a23.593,23.593,0,0,0,1.833-1.749l.028-.032a9.636,9.636,0,0,0-1.192.652,29.193,29.193,0,0,0-3.283,2.453q-2.608,2.2-3.811,3.33c-.24.229-.473.466-.693.711m-26.98,2.131a1.036,1.036,0,0,0,.08.2.559.559,0,0,0,.479.338,1.968,1.968,0,0,0,.665-.171,13.3,13.3,0,0,0,3.39-2.245q1.021-.925,2.315-2.287a31.453,31.453,0,0,0-4.991,2.181,4.046,4.046,0,0,0-1.938,1.982m12.8-.522q-.625.468-1.245.938c.376-.254.738-.527,1.1-.817Zm9.459,1.6.033-.13c-.187.141-.379.277-.564.413.176-.09.35-.184.531-.283m11.341,2.41c.014-.059.031-.121.048-.181a17.244,17.244,0,0,1-2.074.461,7.424,7.424,0,0,0,2.026-.28m11.207,3.116.041-.059c.016-.019.028-.039.043-.059-1,.238-2.114.471-2.69.576a1.572,1.572,0,0,0,.4,0,4.65,4.65,0,0,0,.565-.115c.082-.023.827-.177,1.641-.345M228.63,42.986q-.977.588-2.03,1.2l-.019.031a16.332,16.332,0,0,0,2.049-1.234m-41.474-.337c0-.076-.005-.152-.006-.227a7.449,7.449,0,0,1,.354-2.213,11.943,11.943,0,0,1,1.059-2.355,21.267,21.267,0,0,1,1.71-2.458,35.119,35.119,0,0,1,2.379-2.664,26.18,26.18,0,0,1,2.8-2.5,18.94,18.94,0,0,1,2.509-1.651,11.788,11.788,0,0,1,2.093-.9,5.843,5.843,0,0,1,1.6-.3,2.072,2.072,0,0,1,1.1.275,1.839,1.839,0,0,1,.705.817,2.987,2.987,0,0,1,.254,1.241,3.784,3.784,0,0,1-.071.738,3.277,3.277,0,0,1,.022.352,5.7,5.7,0,0,1-.988,2.947,17.474,17.474,0,0,1-2.471,3.141,21.369,21.369,0,0,1-2.838,2.472,4.263,4.263,0,0,1-1.948.961,1.117,1.117,0,0,1-.746-.282.831.831,0,0,1-.349-.645,1.684,1.684,0,0,1,.168-.692.727.727,0,0,1-.119-.4,2.727,2.727,0,0,1,.782-1.62,14.007,14.007,0,0,1,1.7-1.744,3.645,3.645,0,0,1,1.111-.8c.057,0,.086.02.086.073a.941.941,0,0,1-.134.359,1.218,1.218,0,0,0-.133.321c0,.059.028.09.077.09.146,0,.567-.359,1.266-1.067a17.124,17.124,0,0,0,1.915-2.356,5.9,5.9,0,0,0,.738-1.4.578.578,0,0,0-.089-.134.621.621,0,0,0-.484-.179,5.73,5.73,0,0,0-2.752,1.339,26.9,26.9,0,0,0-3.774,3.4,24.007,24.007,0,0,0-3.214,4.255,9,9,0,0,0-1.219,3.09,3.338,3.338,0,0,0,.317,1.277,2.282,2.282,0,0,0,.94.992A2.944,2.944,0,0,0,193,44.55a9.048,9.048,0,0,0,4.266-1.338c.481-.271,1.043-.637,1.648-1.061l.286-.252a3.282,3.282,0,0,1,.552-.714,14.274,14.274,0,0,1,1.483-1.229,20.961,20.961,0,0,1,5.156-2.8,10.58,10.58,0,0,1,3.769-.791.975.975,0,0,1,.634.3,1.924,1.924,0,0,1,.43.641,1.244,1.244,0,0,1,.143.522.433.433,0,0,1-.263.387l-.01.006a1.614,1.614,0,0,1,.081.174,1.327,1.327,0,0,1,.143.519.436.436,0,0,1-.263.39,2.779,2.779,0,0,1-.4.145c.042.112.077.21.109.291a1.027,1.027,0,0,1,.066.415,1.057,1.057,0,0,1-.2.451l.084.222a1.074,1.074,0,0,1,.066.418,3.134,3.134,0,0,1-.909,1.3c-.583.626-1,1.09-1.24,1.386a1.854,1.854,0,0,0-.31.583.989.989,0,0,0,1.006.641,4.284,4.284,0,0,0,1.971-.568,12.616,12.616,0,0,0,2.375-1.559c.125-.1.247-.2.361-.295-.015-.018-.032-.038-.047-.058a.965.965,0,0,1-.151-.744,1.611,1.611,0,0,1,.135-.443,1.069,1.069,0,0,1-.086-.649,2.972,2.972,0,0,1,.682-1.306A8.164,8.164,0,0,1,216,38.117a4.147,4.147,0,0,1,1.45-.792,1.149,1.149,0,0,1,.465-.051c.227.021.322.126.295.321a2.042,2.042,0,0,1-.47.763c.041,0,.083,0,.124,0,.173.02.269.084.293.194q2.972-.085,3.792,0a1.332,1.332,0,0,1,.478.113,1.039,1.039,0,0,1,.384.682,2.931,2.931,0,0,1,.051,1.006.8.8,0,0,1-.073.236,2.726,2.726,0,0,1,.024.854,1.16,1.16,0,0,1-.4.653c-.237.22-.637.537-1.2.956a9.3,9.3,0,0,0-1.728,1.7,6.055,6.055,0,0,0-.594.892,1.16,1.16,0,0,0,.722.274c.648.071,2.323-.656,4.079-1.652a13.2,13.2,0,0,1,2.232-3.3,31.089,31.089,0,0,1,4.991-4.479,36.665,36.665,0,0,1,5.23-3.2c1.631-.793,2.7-1.141,3.186-1.05.471.086.639.426.507,1.007-.028.113-.062.231-.1.351a.965.965,0,0,1,.054.739q-.894,3.876-14.135,11.449a10.591,10.591,0,0,0-.278,1.046c-.022.094-.039.181-.057.269a1,1,0,0,0,.847.913,1.762,1.762,0,0,0,1.044-.168,15.589,15.589,0,0,0,1.588-.92,1.246,1.246,0,0,1,.025-.3,1.816,1.816,0,0,1,.081-.257,2.219,2.219,0,0,1-.031-.832,3.188,3.188,0,0,1,1.141-1.619A9.429,9.429,0,0,1,232.08,42.6a3.152,3.152,0,0,1,1.531-.429c.449.086.608.413.471,1a2.6,2.6,0,0,1-.1.34.963.963,0,0,1,.051.749,4.557,4.557,0,0,1-.753,1.523,14.362,14.362,0,0,1-1.052,1.311,1.366,1.366,0,0,0,.329.1,8.433,8.433,0,0,0,2.507-.391,5.46,5.46,0,0,1,1.136-1.235,11.562,11.562,0,0,1,5.41-2.4,5.591,5.591,0,0,1,2.489.092,2.791,2.791,0,0,1,1.1.568.631.631,0,0,1,.21.714.859.859,0,0,1-.287.348l.027.025a.655.655,0,0,1,.235.631.581.581,0,0,1,.094.174,1.518,1.518,0,0,1-.115.96.5.5,0,0,1,.065.129,1.607,1.607,0,0,1-.138,1.03,6.373,6.373,0,0,1-1.011,1.625A10.375,10.375,0,0,1,243.3,50.5a1.742,1.742,0,0,0,.313-.01,4.725,4.725,0,0,0,.565-.116c.144-.041,2.373-.483,3.373-.718.207-.094.445-.195.711-.3a17.4,17.4,0,0,1,3.084-1,2.613,2.613,0,0,1,1.8.152,1.664,1.664,0,0,1,.629.562.509.509,0,0,1-.029.587.752.752,0,0,1-.262.216,1.1,1.1,0,0,1,.238.285.5.5,0,0,1-.029.589.729.729,0,0,1-.273.222,2.161,2.161,0,0,1-.375.141c-.12.037-.377.1-.76.188a29.059,29.059,0,0,0-2.919.841c.507-.125,1.13-.287,1.86-.478q1.338-.348,3-.6a25.618,25.618,0,0,1,3.581-.278,3.036,3.036,0,0,1,1.57.247c.156.088.166.36.048.818-.023.095-.056.188-.084.277.143.1.148.365.032.811a3.776,3.776,0,0,1-.586,1.254,2.2,2.2,0,0,1-1.213.5q-3.761.932-4.742,1.8a2.911,2.911,0,0,0,1.28.2c.623,0,1.633-.066,3.036-.192l-.627.877q-1.213.231-2.2.4.945-.022,2.78-.186l-.624.875c-2.179.417-3.817.678-4.9.788a4.052,4.052,0,0,1-2.311-.223,1.079,1.079,0,0,1-.459-1.571q-.341-.612.334-1.561a3.382,3.382,0,0,1,.711-.718,7.048,7.048,0,0,1,.975-.593c.277-.146.655-.33,1.129-.554l-.162.031a20.978,20.978,0,0,0-2.271.525c-.659.2-1.373.426-2.153.694a15.38,15.38,0,0,1-1.641.484,1.088,1.088,0,0,1-.77-.079c-.3-.176-.378-.618-.227-1.334l.019-.1a2.1,2.1,0,0,1,.032-.99,4.657,4.657,0,0,1,.335-1.015c-1.048.237-2.068.438-2.326.472a4.29,4.29,0,0,1-1.909-.33q-2.894,1.576-4.466,1.089A2.59,2.59,0,0,1,235,52.462a3.568,3.568,0,0,1-.622-1.8,4.653,4.653,0,0,1,.043-1.138,5.116,5.116,0,0,1-.006-.568,10.152,10.152,0,0,1-3.154.483,4.471,4.471,0,0,1-1.11-.377,19.092,19.092,0,0,1-3.1,1.994,3.752,3.752,0,0,1-2.3.385,2,2,0,0,1-1.625-1.521,5.282,5.282,0,0,1-.142-2.237,6.181,6.181,0,0,1,.037-.988c-.91.665-1.778,1.271-2.36,1.654a13.008,13.008,0,0,1-1.821,1.018,2.9,2.9,0,0,1-1.422.293,1.408,1.408,0,0,1-1.089-.7,2.55,2.55,0,0,1-.248-1.718c.008-.058.017-.117.031-.178a3.646,3.646,0,0,1,.019-.909,3.757,3.757,0,0,1,.555-1.432,10.271,10.271,0,0,1,1.308-1.677c.182-.2.375-.392.571-.587l-1.105.065c-.443.02-.786.041-1.023.054a10.485,10.485,0,0,1-2.231,2.154c-.929.688-1.83,1.356-2.738,2.072-2.2,1.732-3.823,2.543-4.811,2.487a1.071,1.071,0,0,1-.9-.441,1.9,1.9,0,0,1-.19-1.156,3.536,3.536,0,0,1,.059-.457,3.141,3.141,0,0,1-.013-.63,6.3,6.3,0,0,1,.431-1.677q-2.077,1.8-3.154,2.627a3.437,3.437,0,0,1-2.034.921,1.478,1.478,0,0,1-.879-.629,5.368,5.368,0,0,1-.865-1.542,4.384,4.384,0,0,1-.3-1.807,17.91,17.91,0,0,1-3.207,2.147c-.227.118-.456.226-.681.325a8.254,8.254,0,0,1-3.357.783,5.385,5.385,0,0,1-2.414-.493,3.391,3.391,0,0,1-1.521-1.465,4.794,4.794,0,0,1-.526-2.282,6.16,6.16,0,0,1,.056-.861M166.063,40.99a1.491,1.491,0,0,1,.412.258,8.072,8.072,0,0,1,.924,1.226,3.5,3.5,0,0,0,1.5-1.139,2.6,2.6,0,0,0,.443-1.114c0-.079-.015-.154-.027-.235l-.3-2.124q-.754.879-2.96,3.128m-8.179-.29a7.957,7.957,0,0,0,1.884-1.246,6.443,6.443,0,0,0,1.3-1.515c.051-.093.1-.176.138-.258a.6.6,0,0,0-.115-.008,2,2,0,0,0-.839.375,7.019,7.019,0,0,0-1.148.935,6.511,6.511,0,0,0-1.021,1.324,4.05,4.05,0,0,0-.2.393m-30.548,5.651a9.993,9.993,0,0,0,.036,1.046q.213.938,1.517.638a3.5,3.5,0,0,0,1.409-1.079,3.606,3.606,0,0,1-.187-.579,4.939,4.939,0,0,1-.06-1.843,5.429,5.429,0,0,1,.061-1.155c.045-.291.1-.606.187-.941q-.78.762-1.353,1.389a9.815,9.815,0,0,0-1.155,1.488,3.547,3.547,0,0,0-.455,1.036m-8.457,1.438a8.178,8.178,0,0,0,1.778-1.867,6.409,6.409,0,0,0,.9-1.787l.033-.119a.259.259,0,0,0-.34-.122,2.054,2.054,0,0,0-.723.567,7.309,7.309,0,0,0-.889,1.184,6.577,6.577,0,0,0-.669,1.532,3.915,3.915,0,0,0-.106.45c0,.053.01.108.018.162m26.446-3.955a.862.862,0,0,0,.21.37.6.6,0,0,0,.517.179,2.091,2.091,0,0,0,1.112-.584,21.689,21.689,0,0,0,1.76-1.837A31.4,31.4,0,0,0,151.24,38.8c.074-.11.141-.216.2-.322l0,0c-.541-.319-1.945.684-2.442,1.018a13.873,13.873,0,0,0-1.436,1.243,9.361,9.361,0,0,0-1.767,2.078,4.414,4.414,0,0,0-.469,1.018m23.159-.991c-.091.061-.182.123-.274.187l.049.007c.078-.061.154-.129.225-.194m-4.507-1.007.011-.011V41.82Zm-47.29,8.824c-1.272,2.69-3.289,5.65-4.606,8.223q-.253,2.009-.508,3.336t-.463,2.229c-.145.6-.217.911-.221.924a2.225,2.225,0,0,1-.364.765,1.871,1.871,0,0,1-.58.6.976.976,0,0,1-.818.075,1.111,1.111,0,0,1-.64-.538,3.344,3.344,0,0,1-.254-2.153,5.234,5.234,0,0,1,.175-1.7,15.8,15.8,0,0,1,1.835-4.1c.141-1.352.245-2.7.322-4.032l.02-.415,0-.017c.029-.746.048-1.442.055-2.092.015-1.07,0-2.112-.048-3.121-.33.851-.672,1.676-1.011,2.484s-.688,1.584-1.027,2.328-.552,1.215-.629,1.4-.155.328-.211.462q-1.155,3.169-2.249,3.771a2.41,2.41,0,0,1-2.314-.025,4.829,4.829,0,0,1-2.1-2.119,8.087,8.087,0,0,1-.794-2.166,11.2,11.2,0,0,1-.239-2.658c0-.322.021-.646.049-.97v-.118a15.115,15.115,0,0,1,.342-2.952,17.255,17.255,0,0,1,.9-2.949,24.331,24.331,0,0,1,2.376-4.346,27.989,27.989,0,0,1,2.914-3.661,11.026,11.026,0,0,1,2.277-1.961,1.342,1.342,0,0,1,.9-.192,1.457,1.457,0,0,1,.764.415,3.38,3.38,0,0,1,.589.78,1.753,1.753,0,0,1,.192.96,2.746,2.746,0,0,1-.093.518,2.056,2.056,0,0,1,.044.569,5.168,5.168,0,0,1-.661,1.874,21.462,21.462,0,0,1-1.286,2.107,6.544,6.544,0,0,1-.828,1.065c-.051.028-.085.026-.106-.01-.043-.078-.01-.257.092-.533s.215-.564.355-.869a1.7,1.7,0,0,1-.291.325c-.05.025-.086.025-.107-.01-.044-.08-.011-.257.092-.536s.22-.569.361-.879a4.318,4.318,0,0,0,.21-.583c-.009-.04-.022-.081-.033-.121a18.956,18.956,0,0,0-1.961,2.265,21.87,21.87,0,0,0-1.686,2.682,29.622,29.622,0,0,0-1.422,3.1,17.282,17.282,0,0,0-.992,3.638c-.071.449-.122.875-.157,1.278,0,.246.006.482.022.709a4.82,4.82,0,0,0,.4,1.88,1.238,1.238,0,0,0,.673.582,1.031,1.031,0,0,0,.9-.085,3.118,3.118,0,0,0,1.067-1.2,22.194,22.194,0,0,0,1.16-2.348q.585-1.367,1.061-2.559c.316-.8.649-1.666,1.012-2.6.33-.866.583-1.552.751-2.059a6.441,6.441,0,0,0,.31-1.262,2.223,2.223,0,0,1,.6-1.441,1.121,1.121,0,0,1,1.021-.292,1.151,1.151,0,0,1,.816.59,6.325,6.325,0,0,1,.106,1.5q.018,1.347-.037,3.953c-.025,1.288-.077,2.768-.158,4.429l0,.034v.11c-.024.518-.05,1.059-.078,1.617a60.6,60.6,0,0,0,4.156-6.343,5.418,5.418,0,0,1,.127-.95,10.574,10.574,0,0,1,1.47-3.19,8.879,8.879,0,0,1,1.69-2.007,4.894,4.894,0,0,1,1.727-1.028,1.708,1.708,0,0,1,1.129-.016,1.111,1.111,0,0,1,.658.784,2.767,2.767,0,0,1,.029,1.43,3.247,3.247,0,0,1-.205,1.606,7.93,7.93,0,0,1-1.472,2.339,20.731,20.731,0,0,1-2.472,2.381,1.69,1.69,0,0,0,.611.7,1.4,1.4,0,0,0,1.2.14,3.718,3.718,0,0,0,1.32-.749,8.193,8.193,0,0,0,1.193-1.3q.522-.691,1.22-1.776c.028-.043.273-.428.413-.654a5.362,5.362,0,0,1,.218-1.376,9.258,9.258,0,0,1,1.095-2.424,8.751,8.751,0,0,1,1.7-2.017,4.391,4.391,0,0,1,1.891-1.055,2.309,2.309,0,0,1,1.1-.039.651.651,0,0,1,.516.489,1.1,1.1,0,0,1-.177.731,1.2,1.2,0,0,1,.826.207,1.739,1.739,0,0,1,.418.913,6.288,6.288,0,0,1,.074,1.8c-.009.083-.017.17-.025.252.007.252,0,.531-.024.836a9.175,9.175,0,0,1-.172,1.189l.109.066.212-.049a1.087,1.087,0,0,0,.447-.23c.138-.117.249-.243.359-.352a10.728,10.728,0,0,0,1.219-1.387,1.041,1.041,0,0,1-.266-.159.972.972,0,0,1-.32-.66,2.293,2.293,0,0,1,.083-.912c-.013-.056-.025-.115-.033-.175a2.981,2.981,0,0,1,.225-1.376,7.659,7.659,0,0,1,.836-1.652,3.44,3.44,0,0,1,1.012-1.075.951.951,0,0,1,.371-.158c.2-.031.305.045.334.229a2.176,2.176,0,0,1-.214.865.2.2,0,0,1,.138.131,31.893,31.893,0,0,1,3.458-.982,1.071,1.071,0,0,1,.427,0,1.014,1.014,0,0,1,.5.539A3.014,3.014,0,0,1,141.9,39a1.1,1.1,0,0,1-.148.672,2.674,2.674,0,0,1,.1.418,1.134,1.134,0,0,1-.163.7c-.142.261-.392.653-.754,1.174a8.73,8.73,0,0,0-1,1.984c-.08.228-.144.439-.193.626.121.318.421.44.894.363q.854-.132,2.668-2.141a3.441,3.441,0,0,1,.154-.9,6.222,6.222,0,0,1,.7-1.447,10.869,10.869,0,0,1,1.309-1.635,15.8,15.8,0,0,1,1.92-1.7,7.528,7.528,0,0,1,3.351-1.767,2.459,2.459,0,0,1,2.179.922,3.734,3.734,0,0,1,.591,1.808,3.664,3.664,0,0,1-.066.9c.008.062.013.124.016.185a5.23,5.23,0,0,1-.4,2.092c-.2.63-.489,1.508-.88,2.628l3.011-2.714a5.284,5.284,0,0,1,.469-1.364,10.482,10.482,0,0,1,2.2-2.743,8.975,8.975,0,0,1,2.125-1.536,4.906,4.906,0,0,1,1.923-.584,1.71,1.71,0,0,1,1.1.26,1.121,1.121,0,0,1,.45.92,2.547,2.547,0,0,1-.09.8,1.523,1.523,0,0,1,.041.291,3.018,3.018,0,0,1-.6,1.859,7.842,7.842,0,0,1-1.995,1.912,21.049,21.049,0,0,1-3.194,1.82,1.6,1.6,0,0,0,.385.672,1.392,1.392,0,0,0,1.126.425,3.67,3.67,0,0,0,1.467-.408,8.343,8.343,0,0,0,1.47-.966,26.947,26.947,0,0,0,2.969-2.833q2.837-3.092,4.013-4.465c.193-1.2.7-1.8,1.52-1.813a1.449,1.449,0,0,1,.654.163l.093.277a1.635,1.635,0,0,0-.052.5,4.38,4.38,0,0,0,.23,1.023c.148.5.262.919.347,1.261a5.231,5.231,0,0,1,.133,1.147,4.3,4.3,0,0,1-.058.781c0,.1.009.2.01.307a4.13,4.13,0,0,1-.41,1.855,6.227,6.227,0,0,1-1.243,1.71c-.194.2-.414.4-.654.6a4.016,4.016,0,0,0,.707-.247,7.987,7.987,0,0,0,1.4-.823c.477-.345,1.032-.789,1.66-1.332l.017.976c-.139.141-.276.279-.413.41.111-.094.228-.192.349-.3l.013.976a21.662,21.662,0,0,1-3.29,2.815,4.959,4.959,0,0,1-2.524.978,3.538,3.538,0,0,1-2.556-1.123,3.11,3.11,0,0,1-.871-1.331,5.553,5.553,0,0,1-.173-1.125,20.473,20.473,0,0,1-3.033,3.2,4.909,4.909,0,0,1-2.873,1.2,2.43,2.43,0,0,1-2.1-.9,4.5,4.5,0,0,1-.893-2.715c-.007-.088-.009-.177-.009-.261l-4.1,4.617c-.724,1.617-.578,8.958-2.8,9.186-1.02.108-1.232-1-1.059-2.507a13.539,13.539,0,0,1,.605-3.748,32.132,32.132,0,0,1,1.4-3.31c.355-.882.548-1.931.871-2.836q.282-.786.5-1.446c-.6.769-1.143,1.423-1.627,1.962a11.335,11.335,0,0,1-1.713,1.622,3.107,3.107,0,0,1-1.479.659c-.494.051-.99-.3-1.487-1.039a5.352,5.352,0,0,1-.757-1.69c-.613.873-1.122,1.573-1.54,2.1a11.049,11.049,0,0,1-1.261,1.371,2.317,2.317,0,0,1-1.113.608,1.23,1.23,0,0,1-1.1-.4,2.72,2.72,0,0,1-.655-1.539,3.556,3.556,0,0,1,.036-1.184,4.047,4.047,0,0,1,.108-1.365,9.818,9.818,0,0,1,.658-1.866c.111-.242.227-.485.349-.727l-.191.07c-.324.116-.667.236-1.032.363s-.645.222-.841.291a9.935,9.935,0,0,1-1.4,2.769,11.374,11.374,0,0,1-1.979,2.177,3.46,3.46,0,0,1-1.583.6q-1.346,2.616-2.753,2.934a2.316,2.316,0,0,1-1.567-.193,3.7,3.7,0,0,1-1.371-1.2,5.129,5.129,0,0,1-.808-1.741c-.121.268-.269.587-.3.651a17.516,17.516,0,0,1-1.935,3.493,4.932,4.932,0,0,1-2.5,1.863,2.452,2.452,0,0,1-2.261-.363,4.521,4.521,0,0,1-1.523-2.42c-.056-.181-.1-.365-.14-.547" fill="#fff"/>
    <path id="Контур_8381" data-name="Контур 8381" d="M243.467,45.31q-1.588.313-2.741.6a12.382,12.382,0,0,0-2.029.686,3.655,3.655,0,0,0-1.322.93c-.669.988-1.016,1.524-1.048,1.615q-.355.942,1.1,1.387a5.818,5.818,0,0,0,2.686-.363,3.575,3.575,0,0,1,.213-1.369,5.058,5.058,0,0,1,1.1-1.711,16.463,16.463,0,0,1,2.035-1.779m-16.836-2.154a15.627,15.627,0,0,0,2.077-1.252q1.076-.75,3.164-2.318,2-1.5,3.191-2.54A21.732,21.732,0,0,0,236.9,35.3a3.071,3.071,0,0,0,.712-1.009c.034-.146.007-.231-.074-.246a3.909,3.909,0,0,0-1.749.788,28.985,28.985,0,0,0-3.284,2.452q-2.609,2.2-3.81,3.33a12.332,12.332,0,0,0-2.06,2.543M209.37,38.79a38.011,38.011,0,0,0-6.413,2.681q-1.942,1.143-2.038,2.47a1.531,1.531,0,0,0,.127.8.558.558,0,0,0,.48.338,1.961,1.961,0,0,0,.666-.174,13.176,13.176,0,0,0,3.388-2.243q1.566-1.42,3.79-3.876m-10.511,4.641a17.773,17.773,0,0,1-3.208,2.146c-.226.118-.456.225-.682.328a8.318,8.318,0,0,1-3.355.782,5.359,5.359,0,0,1-2.412-.5,3.368,3.368,0,0,1-1.523-1.461,4.792,4.792,0,0,1-.525-2.285,7.361,7.361,0,0,1,.354-2.21,11.657,11.657,0,0,1,1.06-2.353,20.567,20.567,0,0,1,1.707-2.459,35.011,35.011,0,0,1,2.381-2.667,25.985,25.985,0,0,1,2.8-2.5,19.351,19.351,0,0,1,2.506-1.652,11.853,11.853,0,0,1,2.1-.9,5.727,5.727,0,0,1,1.6-.3,2.067,2.067,0,0,1,1.1.274,1.851,1.851,0,0,1,.706.817,2.967,2.967,0,0,1,.254,1.242,5.7,5.7,0,0,1-.986,2.949,17.578,17.578,0,0,1-2.473,3.141A21.469,21.469,0,0,1,197.43,38.3a4.336,4.336,0,0,1-1.951.963,1.13,1.13,0,0,1-.744-.286.831.831,0,0,1-.35-.646,2.73,2.73,0,0,1,.782-1.618,13.691,13.691,0,0,1,1.7-1.745,3.679,3.679,0,0,1,1.108-.8c.058,0,.086.02.086.072a.881.881,0,0,1-.136.362,1.163,1.163,0,0,0-.129.319c0,.06.026.091.075.091.148,0,.57-.359,1.267-1.067a16.969,16.969,0,0,0,1.915-2.358,4.04,4.04,0,0,0,.865-2.1.746.746,0,0,0-.165-.521.625.625,0,0,0-.485-.177,5.7,5.7,0,0,0-2.752,1.338,26.828,26.828,0,0,0-3.774,3.4,24.008,24.008,0,0,0-3.215,4.254,7.816,7.816,0,0,0-1.279,3.856,3.6,3.6,0,0,0,.329,1.6,2.253,2.253,0,0,0,.939.992,2.923,2.923,0,0,0,1.488.345,9.024,9.024,0,0,0,4.262-1.339c.484-.269,1.045-.634,1.65-1.057l.29-.256a3.027,3.027,0,0,1,.551-.713,14.506,14.506,0,0,1,1.48-1.23,20.952,20.952,0,0,1,5.158-2.8,10.547,10.547,0,0,1,3.769-.793.988.988,0,0,1,.635.3,1.935,1.935,0,0,1,.429.642,1.258,1.258,0,0,1,.143.518.432.432,0,0,1-.263.388,4.718,4.718,0,0,1-.844.261c.066.165.155.377.253.637s.185.468.245.628a1.039,1.039,0,0,1,.068.417,3.159,3.159,0,0,1-.909,1.305c-.585.628-1,1.089-1.24,1.385a1.984,1.984,0,0,0-.41,1.13.986.986,0,0,0,1.056,1.184,4.26,4.26,0,0,0,1.97-.57,12.606,12.606,0,0,0,2.376-1.559,9.753,9.753,0,0,0,1.082-.953,1.827,1.827,0,0,1-.722-.486.967.967,0,0,1-.147-.749,2.951,2.951,0,0,1,.678-1.308A8.379,8.379,0,0,1,216,38.142a4.1,4.1,0,0,1,1.451-.791,1.207,1.207,0,0,1,.464-.054c.226.022.32.127.295.322a2.717,2.717,0,0,1-.652.979,43.466,43.466,0,0,1,4.394-.017,1.3,1.3,0,0,1,.477.111,1.044,1.044,0,0,1,.381.681,2.864,2.864,0,0,1,.053,1.007,1.138,1.138,0,0,1-.4.652c-.238.22-.638.543-1.2.959a9.464,9.464,0,0,0-1.731,1.7,3.577,3.577,0,0,0-.792,1.448q-.092.709.876.809c.646.071,2.317-.658,4.074-1.651a13.284,13.284,0,0,1,2.231-3.3,31.305,31.305,0,0,1,4.994-4.482,36.63,36.63,0,0,1,5.231-3.195,7.144,7.144,0,0,1,3.185-1.053c.469.088.64.428.507,1.008q-.9,3.877-14.138,11.452c-.065.177-.155.523-.278,1.049-.311,1.357-.066,2.117.74,2.267a1.73,1.73,0,0,0,1.045-.169A16.4,16.4,0,0,0,229,46.828a3.085,3.085,0,0,1-.119-1.259,3.173,3.173,0,0,1,1.143-1.621,9.4,9.4,0,0,1,2.059-1.32,3.113,3.113,0,0,1,1.529-.428c.45.084.607.413.471,1a4.5,4.5,0,0,1-.755,1.523,16.6,16.6,0,0,1-1.612,1.92,5.145,5.145,0,0,0,.378.387.909.909,0,0,0,.462.188,8.449,8.449,0,0,0,2.506-.392,5.515,5.515,0,0,1,1.137-1.234,11.509,11.509,0,0,1,5.41-2.4,5.565,5.565,0,0,1,2.49.094,2.787,2.787,0,0,1,1.1.565.632.632,0,0,1,.211.712,1.211,1.211,0,0,1-.611.55,1.285,1.285,0,0,1,.678.63,1.586,1.586,0,0,1-.138,1.03,6.234,6.234,0,0,1-1.011,1.625,9.683,9.683,0,0,1-1.71,1.662l.189.346.238.073a1.42,1.42,0,0,0,.577.042,4.8,4.8,0,0,0,.566-.12c.146-.038,2.372-.481,3.371-.714.209-.1.446-.2.713-.306a17.518,17.518,0,0,1,3.083-1,2.607,2.607,0,0,1,1.8.153,1.608,1.608,0,0,1,.629.561.5.5,0,0,1-.029.588.7.7,0,0,1-.275.222,1.933,1.933,0,0,1-.375.139c-.119.042-.376.1-.759.193-2.544.622-3.969,1.149-4.284,1.592-.178.248-.174.42.005.524a2.03,2.03,0,0,0,1-.11c.555-.14,1.28-.325,2.167-.558s1.893-.43,3-.6a26.007,26.007,0,0,1,3.579-.279,3.064,3.064,0,0,1,1.569.248c.156.089.165.362.049.82a3.928,3.928,0,0,1-.585,1.253,2.252,2.252,0,0,1-1.215.5q-4.254,1.05-4.953,2.029c-.258.364-.227.643.1.833a2.751,2.751,0,0,0,1.341.229c.618,0,1.63-.067,3.033-.191l-.627.877c-2.177.414-3.815.674-4.9.79a4.1,4.1,0,0,1-2.314-.226c-.768-.448-.823-1.13-.172-2.044a3.277,3.277,0,0,1,.708-.718,7.1,7.1,0,0,1,.977-.6c.366-.189.9-.448,1.618-.783s1.533-.71,2.455-1.122a11.665,11.665,0,0,0-3.057.3,20.179,20.179,0,0,0-2.27.523c-.658.2-1.373.427-2.153.693a14.086,14.086,0,0,1-1.642.481,1.076,1.076,0,0,1-.77-.075c-.3-.175-.378-.616-.227-1.334a5.887,5.887,0,0,1,1.035-2.2c.014-.02.027-.038.04-.058-1.251.3-2.7.592-3.012.632a4.36,4.36,0,0,1-1.913-.329c-1.93,1.049-3.413,1.41-4.462,1.09a2.6,2.6,0,0,1-1.417-1.022,3.584,3.584,0,0,1-.624-1.8,4.744,4.744,0,0,1,.187-1.748,10.5,10.5,0,0,1-3.3.522,4.347,4.347,0,0,1-1.11-.373,18.942,18.942,0,0,1-3.1,1.992,3.752,3.752,0,0,1-2.3.387,2.008,2.008,0,0,1-1.625-1.522,5.849,5.849,0,0,1,0-3.028c.027-.112.055-.223.085-.337-.975.717-1.926,1.385-2.551,1.8A12.961,12.961,0,0,1,218.89,48.3a2.913,2.913,0,0,1-1.423.3,1.411,1.411,0,0,1-1.087-.7,2.551,2.551,0,0,1-.248-1.718,3.752,3.752,0,0,1,.556-1.434A10.051,10.051,0,0,1,218,43.066a22.355,22.355,0,0,1,1.844-1.756c-.32.022-.677.047-1.078.072s-.813.048-1.254.072-.784.043-1.021.059a10.556,10.556,0,0,1-2.23,2.148c-.929.692-1.829,1.356-2.739,2.075-2.2,1.733-3.822,2.543-4.811,2.484a1.06,1.06,0,0,1-.9-.442,1.91,1.91,0,0,1-.191-1.15,10.051,10.051,0,0,1,1.2-3.4c-1.746,1.53-3.039,2.621-3.878,3.261a3.471,3.471,0,0,1-2.033.918,1.492,1.492,0,0,1-.88-.628,5.347,5.347,0,0,1-.866-1.547,4.343,4.343,0,0,1-.3-1.8m-29.488-4.508-.3-2.125c-.589.689-1.851,2.019-3.8,3.981a2.534,2.534,0,0,1,1.205.5A8.016,8.016,0,0,1,167.4,42.5a3.53,3.53,0,0,0,1.505-1.139,3.164,3.164,0,0,0,.5-1.94c0-.1,0-.188-.009-.263s-.017-.154-.03-.234M157.6,40.859a8.169,8.169,0,0,0,2.179-1.382,6.349,6.349,0,0,0,1.3-1.514,2.3,2.3,0,0,0,.391-1.036c-.013-.224-.117-.329-.32-.319a2.033,2.033,0,0,0-.84.379,7.082,7.082,0,0,0-1.147.932,6.426,6.426,0,0,0-1.021,1.323,4.146,4.146,0,0,0-.544,1.617m-26.874.156c-.678.654-1.254,1.235-1.723,1.749a10.17,10.17,0,0,0-1.156,1.486,3.222,3.222,0,0,0-.51,1.369q.01,1.673.042,1.8c.143.627.65.838,1.519.64a4.574,4.574,0,0,0,1.808-1.522,3.891,3.891,0,0,1-.538-1.224,5.056,5.056,0,0,1-.049-1.907,15.331,15.331,0,0,1,.607-2.392m-11.838,6.8a8.228,8.228,0,0,0,1.778-1.868,6.447,6.447,0,0,0,.9-1.786,2.292,2.292,0,0,0,.128-1.1c-.064-.214-.192-.29-.386-.231a2.079,2.079,0,0,0-.723.567,7.273,7.273,0,0,0-.888,1.185,6.535,6.535,0,0,0-.67,1.53,4.193,4.193,0,0,0-.137,1.7m30.166-9.383a13.66,13.66,0,0,0-1.436,1.245,9.367,9.367,0,0,0-1.767,2.077,3.1,3.1,0,0,0-.562,1.87.983.983,0,0,0,.252.6.624.624,0,0,0,.521.182,2.093,2.093,0,0,0,1.108-.587,20.072,20.072,0,0,0,1.762-1.838,30.768,30.768,0,0,0,2.317-3.159c.391-.577.655-1.167.248-1.411-.542-.323-1.946.683-2.443,1.017M116.74,49.6c-1.273,2.691-3.288,5.65-4.606,8.22-.171,1.342-.336,2.449-.507,3.339s-.319,1.626-.464,2.23-.218.911-.223.924a2.19,2.19,0,0,1-.362.76,1.837,1.837,0,0,1-.582.607.987.987,0,0,1-.816.078,1.134,1.134,0,0,1-.641-.543,3.788,3.788,0,0,1-.127-2.764,15.725,15.725,0,0,1,1.834-4.105c.141-1.352.243-2.7.322-4.03s.118-2.539.127-3.613,0-2.114-.047-3.123c-.33.854-.671,1.677-1.011,2.486s-.688,1.581-1.028,2.327-.551,1.217-.628,1.394-.156.331-.211.464q-1.152,3.167-2.251,3.77a2.406,2.406,0,0,1-2.311-.023,4.81,4.81,0,0,1-2.1-2.123,8.017,8.017,0,0,1-.8-2.162,11.331,11.331,0,0,1-.238-2.661,15.134,15.134,0,0,1,.343-2.951,16.959,16.959,0,0,1,.9-2.948,24.193,24.193,0,0,1,2.374-4.346,28.277,28.277,0,0,1,2.915-3.661,11.027,11.027,0,0,1,2.276-1.961,1.324,1.324,0,0,1,.9-.191,1.435,1.435,0,0,1,.763.414,3.2,3.2,0,0,1,.588.778,1.754,1.754,0,0,1,.195.961,5.2,5.2,0,0,1-.66,1.871,21.356,21.356,0,0,1-1.286,2.11,6.313,6.313,0,0,1-.83,1.064c-.051.028-.087.026-.106-.007-.044-.081-.009-.257.093-.535s.219-.571.36-.881a2.536,2.536,0,0,0,.226-1.794,19.3,19.3,0,0,0-1.96,2.267,21.382,21.382,0,0,0-1.685,2.681,30.2,30.2,0,0,0-1.424,3.1,17.561,17.561,0,0,0-.993,3.643,13.735,13.735,0,0,0-.182,3.074,4.777,4.777,0,0,0,.394,1.879,1.242,1.242,0,0,0,.672.582,1.037,1.037,0,0,0,.9-.084,3.154,3.154,0,0,0,1.069-1.206,22.621,22.621,0,0,0,1.159-2.349q.587-1.364,1.06-2.556c.318-.8.65-1.667,1.012-2.606q.5-1.3.754-2.058a6.484,6.484,0,0,0,.308-1.264,2.254,2.254,0,0,1,.6-1.444,1.134,1.134,0,0,1,1.022-.289,1.163,1.163,0,0,1,.816.591,6.314,6.314,0,0,1,.1,1.5c.012.9,0,2.215-.034,3.951s-.12,3.8-.249,6.2a61.628,61.628,0,0,0,4.163-6.355,5.418,5.418,0,0,1,.127-.95,10.56,10.56,0,0,1,1.471-3.193,8.834,8.834,0,0,1,1.689-2,4.836,4.836,0,0,1,1.726-1.028,1.722,1.722,0,0,1,1.129-.018,1.124,1.124,0,0,1,.661.786,3.029,3.029,0,0,1-.128,1.946,7.922,7.922,0,0,1-1.473,2.34,21.5,21.5,0,0,1-2.808,2.659l.106.347a1.947,1.947,0,0,0,.793,1.157,1.388,1.388,0,0,0,1.2.141,3.7,3.7,0,0,0,1.321-.749,8.268,8.268,0,0,0,1.195-1.294c.347-.462.755-1.053,1.219-1.775.029-.045.272-.431.412-.657a5.289,5.289,0,0,1,.218-1.375,9.333,9.333,0,0,1,1.094-2.425,8.84,8.84,0,0,1,1.7-2.017,4.42,4.42,0,0,1,1.891-1.056,2.386,2.386,0,0,1,1.1-.038.655.655,0,0,1,.518.492,1.114,1.114,0,0,1-.176.729,1.218,1.218,0,0,1,.825.207,1.748,1.748,0,0,1,.414.911,6.16,6.16,0,0,1,.076,1.8,8.95,8.95,0,0,1-.428,2.145l.316.2.213-.049a1.088,1.088,0,0,0,.448-.229c.137-.119.247-.243.359-.354a7.709,7.709,0,0,0,1.563-1.974c.054-.115.11-.239.168-.375a1.585,1.585,0,0,1-.729-.283,1,1,0,0,1-.32-.661,2.967,2.967,0,0,1,.228-1.376,7.682,7.682,0,0,1,.832-1.651,3.412,3.412,0,0,1,1.012-1.074.958.958,0,0,1,.373-.16c.2-.03.3.044.333.232A2.718,2.718,0,0,1,137,38.611a34.059,34.059,0,0,1,3.676-1.049,1.053,1.053,0,0,1,.426-.005,1.017,1.017,0,0,1,.5.541,3.134,3.134,0,0,1,.307.926,1.151,1.151,0,0,1-.165.7,13.446,13.446,0,0,1-.754,1.171,8.737,8.737,0,0,0-1,1.985,3.547,3.547,0,0,0-.288,1.531c.071.451.385.635.942.548s1.456-.8,2.665-2.143a3.416,3.416,0,0,1,.155-.894,6.028,6.028,0,0,1,.7-1.449,10.909,10.909,0,0,1,1.307-1.635,15.746,15.746,0,0,1,1.921-1.706,7.52,7.52,0,0,1,3.351-1.765,2.476,2.476,0,0,1,2.179.919,3.77,3.77,0,0,1,.591,1.811,5.255,5.255,0,0,1-.4,2.091q-.411,1.343-1.413,4.155l3.495-3.152a5.227,5.227,0,0,1,.469-1.363,10.493,10.493,0,0,1,2.2-2.742,9.014,9.014,0,0,1,2.127-1.541,4.938,4.938,0,0,1,1.923-.579,1.689,1.689,0,0,1,1.1.26,1.115,1.115,0,0,1,.449.916A3.015,3.015,0,0,1,162.861,38a7.878,7.878,0,0,1-2,1.916,21.622,21.622,0,0,1-3.366,1.9l.02.363a1.942,1.942,0,0,0,.489,1.316,1.388,1.388,0,0,0,1.126.424,3.671,3.671,0,0,0,1.466-.4,8.266,8.266,0,0,0,1.472-.969,26.991,26.991,0,0,0,2.968-2.829q2.836-3.1,4.012-4.466c.2-1.2.705-1.8,1.519-1.815a1.483,1.483,0,0,1,.657.164l.091.277a1.671,1.671,0,0,0-.052.494A4.5,4.5,0,0,0,171.5,35.4c.148.5.261.915.347,1.258a5.374,5.374,0,0,1,.132,1.15,4,4,0,0,1-.41,1.851,6.19,6.19,0,0,1-1.24,1.711,13.619,13.619,0,0,1-2.116,1.687,5,5,0,0,0,.834.074,3.252,3.252,0,0,0,1.284-.317,8.044,8.044,0,0,0,1.4-.822c.478-.346,1.036-.79,1.662-1.333l.015.977a21.666,21.666,0,0,1-3.29,2.814,5,5,0,0,1-2.522.981,3.542,3.542,0,0,1-2.557-1.126,3.109,3.109,0,0,1-.871-1.329,5.6,5.6,0,0,1-.174-1.126,20.677,20.677,0,0,1-3.031,3.2,4.917,4.917,0,0,1-2.874,1.2,2.433,2.433,0,0,1-2.1-.9,4.507,4.507,0,0,1-.9-2.715c-.005-.089-.008-.177-.008-.263l-4.106,4.62c-.722,1.616-.579,8.956-2.8,9.186-1.57.162-1.224-2.556-.5-5.17a31.114,31.114,0,0,1,1.4-3.307c.353-.882.546-1.93.869-2.836q.71-2,1.064-3.195c-.814,1.062-1.522,1.934-2.136,2.622a11.459,11.459,0,0,1-1.713,1.624,3.148,3.148,0,0,1-1.48.657c-.494.053-.992-.3-1.488-1.04a5.293,5.293,0,0,1-.757-1.691q-.918,1.313-1.538,2.1a11.219,11.219,0,0,1-1.262,1.372,2.32,2.32,0,0,1-1.113.609,1.245,1.245,0,0,1-1.1-.4,2.744,2.744,0,0,1-.654-1.543,3.968,3.968,0,0,1,.093-1.46,9.914,9.914,0,0,1,.66-1.864,21.223,21.223,0,0,1,1.088-2.067c-.262.1-.552.2-.882.321s-.668.235-1.03.362-.647.222-.841.295a10.056,10.056,0,0,1-1.4,2.768,11.473,11.473,0,0,1-1.979,2.178,3.5,3.5,0,0,1-1.584.6c-.9,1.74-1.812,2.718-2.752,2.931a2.3,2.3,0,0,1-1.567-.193,3.736,3.736,0,0,1-1.372-1.2,5.1,5.1,0,0,1-.808-1.741c-.122.268-.267.589-.3.65a17.41,17.41,0,0,1-1.935,3.495,4.927,4.927,0,0,1-2.5,1.861,2.443,2.443,0,0,1-2.261-.364,4.515,4.515,0,0,1-1.524-2.419c-.054-.183-.1-.365-.139-.546" fill="#fff"/>
    <g id="Сгруппировать_1342" data-name="Сгруппировать 1342">
      <path id="Контур_8382" data-name="Контур 8382" d="M133.45,127.464a3.71,3.71,0,0,1-.767,2.548,2.93,2.93,0,0,1-2.3.852h-5.809a2.948,2.948,0,0,1-2.307-.852,3.69,3.69,0,0,1-.772-2.548v-5.809a3.752,3.752,0,0,1,.759-2.575,2.968,2.968,0,0,1,2.32-.842h5.809a2.958,2.958,0,0,1,2.316.834,3.785,3.785,0,0,1,.747,2.583Zm-8-.049h4.06v-5.76h-4.06Z" fill="#fff"/>
      <path id="Контур_8383" data-name="Контур 8383" d="M134.9,130.864V118.238h3.6v12.626Z" fill="#fff"/>
      <path id="Контур_8384" data-name="Контур 8384" d="M146.654,129.718a1.681,1.681,0,0,1-.684.883,2.529,2.529,0,0,1-1.279.263h-2.2a2.465,2.465,0,0,1-1.882-.687,2.788,2.788,0,0,1-.651-1.986V124.27a2.771,2.771,0,0,1,.656-1.986,2.453,2.453,0,0,1,1.877-.7h2.336a2.519,2.519,0,0,1,1.06.191,2.079,2.079,0,0,1,.763.652v-4.193h3.6v9.418h.611v3.208h-2.213a2.546,2.546,0,0,1-1.258-.254A1.932,1.932,0,0,1,146.654,129.718Zm-3.061-2.062h3.061V124.8h-3.061Z" fill="#fff"/>
      <path id="Контур_8385" data-name="Контур 8385" d="M159.3,130.864h-4.614a2.5,2.5,0,0,1-2.018-.713,3.95,3.95,0,0,1-.6-2.5v-3.227H151.2v-1.85h.866v-4.341h3.68v4.341h3.483v1.85h-3.483v3.227h3.55Z" fill="#fff"/>
      <path id="Контур_8386" data-name="Контур 8386" d="M160.57,120.467v-2.229h3.6v2.229Zm0,10.4v-9.276h3.6v9.276Z" fill="#fff"/>
      <path id="Контур_8387" data-name="Контур 8387" d="M165.728,130.864v-9.276h3.6v.745a2.091,2.091,0,0,1,.752-.571,2.4,2.4,0,0,1,.957-.174h1.914a2.423,2.423,0,0,1,1.049.21,1.063,1.063,0,0,1,.569.567,1.273,1.273,0,0,1,.666-.577,2.931,2.931,0,0,1,1.147-.2h1.983a2.524,2.524,0,0,1,1.858.508,3.262,3.262,0,0,1,.461,2.076v3.484h.651v3.208h-1.921a2.237,2.237,0,0,1-1.762-.66,2.874,2.874,0,0,1-.591-1.972V124.8h-2.071v6.064h-3.565V124.8H169.31v6.064Z" fill="#fff"/>
      <path id="Контур_8388" data-name="Контур 8388" d="M190.627,130.864h-5.868a2.618,2.618,0,0,1-1.95-.674,2.77,2.77,0,0,1-.665-2.016v-3.762a2.807,2.807,0,0,1,.746-2.068,2.727,2.727,0,0,1,2.025-.756h5.135a2.039,2.039,0,0,1,1.691.7,3.366,3.366,0,0,1,.562,2.123v2.549h-6.527v.892h4.851Zm-4.851-5.337h3.159v-.9h-3.159Z" fill="#fff"/>
      <path id="Контур_8389" data-name="Контур 8389" d="M193.583,130.864v-9.276h3.655v.71a1.178,1.178,0,0,1,.545-.553,2.776,2.776,0,0,1,1.089-.157h1.914a2.1,2.1,0,0,1,1.557.483,2.348,2.348,0,0,1,.467,1.646v2.957h-3.443V124.8h-2.129v6.064Z" fill="#fff"/>
      <path id="Контур_8390" data-name="Контур 8390" d="M207.786,129.718a1.966,1.966,0,0,1-.75.892,2.578,2.578,0,0,1-1.263.254h-2.195v-3.208h.6v-9.418h3.606v4.193a2.1,2.1,0,0,1,.759-.652,2.519,2.519,0,0,1,1.065-.191h2.328a2.462,2.462,0,0,1,1.884.7,2.771,2.771,0,0,1,.656,1.986v3.921a2.771,2.771,0,0,1-.656,1.986,2.473,2.473,0,0,1-1.884.687h-2.212a2.48,2.48,0,0,1-1.267-.263A1.642,1.642,0,0,1,207.786,129.718Zm3.037-2.062V124.8h-3.037v2.856Z" fill="#fff"/>
      <path id="Контур_8391" data-name="Контур 8391" d="M226.462,121.588v9.276h-3.6v-.874a2.9,2.9,0,0,1-1.037.656,3.816,3.816,0,0,1-1.35.218H218.3a2.119,2.119,0,0,1-1.758-.737,3.424,3.424,0,0,1-.594-2.182V124.8h-.744v-3.212h2.178a2.213,2.213,0,0,1,1.628.549,2.258,2.258,0,0,1,.544,1.646v3.873h3.311v-6.068Z" fill="#fff"/>
      <path id="Контур_8392" data-name="Контур 8392" d="M227.881,130.864v-3.208h6.629v-.777h-4.581a1.95,1.95,0,0,1-1.517-.561,2.376,2.376,0,0,1-.513-1.66v-.889a2.341,2.341,0,0,1,.5-1.648,2.033,2.033,0,0,1,1.548-.533h6.965V124.8h-5.563v.776h4.491a2.171,2.171,0,0,1,1.639.557,2.42,2.42,0,0,1,.531,1.72v.967a2.024,2.024,0,0,1-.54,1.539,2.316,2.316,0,0,1-1.63.505Z" fill="#fff"/>
    </g>
  </g>
</svg>
